<?xml version="1.0" encoding="utf-8"?>
<!-- Generator: Adobe Illustrator 21.1.0, SVG Export Plug-In . SVG Version: 6.00 Build 0)  -->
<svg version="1.1" xmlns="http://www.w3.org/2000/svg" xmlns:xlink="http://www.w3.org/1999/xlink" x="0px" y="0px"
	 viewBox="0 0 1000 1000" style="enable-background:new 0 0 1000 1000;" xml:space="preserve">
<style type="text/css">
	.st0{display:none;}
	.st1{display:inline;fill:#FFFFFF;stroke:#000000;stroke-width:10;stroke-miterlimit:10;}
	.st2{display:inline;fill:#BCBEC0;stroke:#000000;stroke-width:11;stroke-linejoin:bevel;stroke-miterlimit:10;}
	.st3{display:inline;stroke:#000000;stroke-width:7;stroke-miterlimit:10;}
	.st4{display:inline;fill:#00A651;stroke:#000000;stroke-width:2;stroke-miterlimit:10;}
	.st5{display:inline;stroke:#000000;stroke-width:2;stroke-miterlimit:10;}
	.st6{display:inline;}
	.st7{fill:none;}
	.st8{fill:#00A651;}
	.st9{display:inline;fill:none;}
	.st10{display:inline;stroke:#000000;stroke-width:3;stroke-miterlimit:10;}
	.st11{display:inline;clip-path:url(#SVGID_2_);}
	.st12{fill:#FFFFFF;}
	.st13{fill:none;stroke:#000000;stroke-width:32;stroke-miterlimit:10;}
	.st14{fill:#FFFFFF;stroke:#000000;stroke-width:12;stroke-miterlimit:10;}
</style>
<g id="_x3E__x3C_" class="st0">
	<polygon class="st1" points="45,432 91.3,540.6 45,648 216,648 216,432 	"/>
	<polygon class="st1" points="963,432 916.7,540 963,648 792,648 792,432 	"/>
	<polygon class="st2" points="108,603 216,648 216,603 	"/>
	<polygon class="st2" points="900,603 792,648 792,603 	"/>
</g>
<g id="arrows" class="st0">
	<polygon class="st3" points="855,801 810,801 513,504 846,171 855,207 891,117 801,153 837,162 504,495 171,162 207,153 117,117 
		153,207 162,171 495,504 198,801 153,801 99,855 153,855 153,909 207,855 207,810 504,513 801,810 801,855 855,909 855,855 
		909,855 	"/>
</g>
<g id="green">
</g>
<g id="white">
</g>
<g id="Layer_11" class="st0">
	<g>
		<polygon class="st4" points="517.2,528.7 516.1,529.8 515.8,529.5 513.6,530.8 513.8,531.5 515.5,530.6 519.3,527.4 		"/>
		<path class="st5" d="M623.7,222.3l7.9,55.6l-1,0.1l-154,21.8l-41.7,16.2l-35.1,24.2l-27.2,30.4l-18.5,34.5l-9.6,36.6l-0.9,36.6
			l7.1,34.8l14.2,31.4l20,26.6l24.3,20.9l27,14.5l28.2,7.9l27.8,1.5l26-4.5l23.1-9.8l19.2-14.2l14.7-17.6l9.8-19.7l4.7-20.7
			l-0.1-20.6l-4.6-19.4l-8.5-17.4l-11.7-14.6l-14-11.3l-15.4-7.7l-15.9-4l-15.6-0.3l-14.5,3l-12.7,5.9l-10.5,8.3l-7.9,10.1
			l-5.1,11.2l-2.3,11.7l0.5,11.5l2.9,10.8l5.1,9.6l6.8,8l8,6.1l8.7,4l8.9,1.9l8.7-0.1l8-1.9l5-2.5l-2.9,0.9l-1.4,0.8l-0.2-0.3
			l-2.6,0.8l0.1,0.8l-3.4,0.2l-1.6,0.5l-0.1-0.4l-3,0.2l-0.1,0.8l-3.5-0.5l-1.7,0.1l0-0.4l-3.2-0.5l-0.3,0.8l-3.4-1.3l-1.7-0.3
			l0.1-0.4l-3.3-1.3l-0.5,0.7l-3.2-2.1l-1.7-0.6l0.1-0.4l-3.1-2.1l-0.7,0.6l-2.7-2.8l-1.5-1l0.2-0.3l-2.7-2.8l-0.8,0.4l-2.1-3.4
			l-1.3-1.4l0.3-0.3l-2.2-3.5l-0.9,0.2l-1.3-3.9l-1-1.7l0.4-0.2l-1.4-4.1l-1,0l-0.4-4.2l-0.6-1.9l0.4-0.1l-0.5-4.5l-1-0.2l0.5-4.3
			l-0.2-2l0.5,0l0.6-4.7l-1-0.4l1.6-4.1l0.3-2l0.5,0.1l1.7-4.6l-0.9-0.7l2.6-3.8l0.7-1.9l0.4,0.2l2.9-4.3l-0.8-0.9l3.5-3.2l1.2-1.7
			l0.4,0.3l4-3.6l-0.6-1.1l4.4-2.4l1.6-1.4l0.3,0.4l5.1-2.8l-0.3-1.2l5-1.4l1.9-1l0.2,0.4l5.9-1.6l-0.1-1.3l5.4-0.2l2.1-0.6l0.1,0.5
			l6.6-0.3l0.2-1.3l5.6,1l2.3-0.1l0,0.5l6.9,1.3l0.5-1.2l5.4,2.3l2.3,0.4l-0.1,0.5l6.8,2.9l0.8-1.1l5,3.5l2.2,1l-0.2,0.5l6.4,4.5
			l1.1-0.9l4.2,4.7l2.1,1.5l-0.3,0.4l5.5,6.1l1.3-0.6l3.2,5.6l1.8,1.9l-0.4,0.4l4.2,7.4l1.5-0.3l1.9,6.3l1.3,2.3l-0.5,0.3l2.6,8.5
			l1.6,0l0.5,6.8l0.8,2.6l-0.6,0.1l0.7,9.2l1.6,0.4l-1.1,6.9l0.2,2.8l-0.6,0l-1.5,9.4l1.6,0.8l-2.8,6.7l-0.5,2.8l-0.7-0.2l-3.8,9.2
			l1.4,1.1l-4.4,6l-1.1,2.7l-0.6-0.3l-6.1,8.4l1.2,1.5l-5.9,5l-1.7,2.4l-0.6-0.4l-8.3,7l0.9,1.8l-7.3,3.7l-2.3,2l-0.5-0.6l-10.2,5.2
			l0.5,2l-8.3,2l-2.8,1.4l-0.3-0.7l-11.8,2.8l0,2.1l-8.9,0.1l-3.1,0.8l-0.2-0.7l-12.9,0.1l-0.5,2.1l-9.1-2l-3.3,0l0-0.8l-13.3-2.9
			l-1,2l-8.8-4.1l-3.4-0.7l0.2-0.8l-13.1-6l-1.4,1.7L422,591l-3.3-1.5l0.4-0.7l-12-9.1l-1.9,1.4l-6.8-8l-3-2.3l0.5-0.6l-10.2-12
			l-2.3,1l-5-9.5l-2.5-3l0.7-0.5l-7.7-14.5l-2.5,0.4l-2.9-10.7l-1.9-3.6l0.8-0.4l-4.4-16.4l-2.7-0.1l-0.4-11.4l-1.1-4l0.9-0.2
			l-0.7-17.5l-2.7-0.8l2.2-11.6l-0.2-4.2l1,0.1l3.5-17.8l-2.6-1.4l5-11.1l0.8-4.2l1,0.3l7.8-17.1l-2.3-2l7.8-9.9l1.8-4l0.9,0.5
			l12.1-15.4l-1.9-2.6l10.3-8.2l2.8-3.6l0.8,0.7l16.1-12.8l-1.4-3l12.5-5.8l3.7-2.9l0.7,0.9l19.6-9.1l-0.7-3.3l14.2-2.9l4.4-2l0.5,1
			l22.3-4.6l0.1-3.5l15.2,0.3l4.9-1l0.2,1.1l24.1,0.5l0.9-3.5l15.4,3.8l5.2,0.1l0,1.2l24.7,6.1l1.8-3.3l14.9,7.4l5.3,1.3l-0.3,1.2
			l23.9,11.9l2.6-2.9l13.4,10.9l5.1,2.6l-0.6,1.1l21.8,17.6l3.3-2.3l11.2,14l4.6,3.7l-0.9,1l18.2,22.8l3.9-1.5l8.1,16.6l3.9,4.8
			l-1.1,0.8l13.3,27.1l4.4-0.6l4.4,18.5l2.8,5.7l-1.3,0.5l7.2,30.4l4.6,0.4l0.1,19.6l1.5,6.4l-1.5,0.2l0.2,32.2l4.6,1.5l-0.2,0.9
			l-4.3,18.8l0,6.7l-1.1-0.1l-0.5,0l-7.4,32.5l4.4,2.5l-9.3,18.7l-1.5,6.7l-1-0.3l-0.5-0.2l-15.3,30.9l3.9,3.6l-13.9,16.7l-3.1,6.3
			l-0.9-0.5l-0.5-0.3l-23.1,27.6l3.2,4.5l-18.2,13.5l-4.7,5.6l-0.8-0.7l-0.5-0.5l-20.8,15.4C744.3,722.6,810,621,810,504
			C810,377.5,733.2,268.9,623.7,222.3z"/>
		<polygon class="st4" points="528.9,505.1 528.9,504.8 528.9,504.9 		"/>
		<polygon class="st4" points="528.2,513 527.8,512.9 527.1,514.9 527.5,515.1 528,513.7 528.5,510.7 528.3,511.4 		"/>
		<polygon class="st4" points="525.6,519.3 525.3,519.1 524.1,521 524.5,521.4 525.4,520.1 526.8,516.6 526.1,517.8 		"/>
		<polygon class="st4" points="523.8,489.6 523.6,489.3 524.3,490.4 		"/>
		<polygon class="st4" points="521.6,525 521.3,524.8 519.6,526.4 519.9,527 521.2,525.8 523.8,522.3 522.4,523.6 		"/>
		<polygon class="st4" points="528.6,508.4 528.9,508.5 529.1,507.2 529,506.5 528.8,506.5 		"/>
		<polygon class="st4" points="507.4,507.1 508.6,505.3 509.2,503.4 509.4,501.4 509.2,499.5 508.5,497.8 507.5,496.3 506.3,495.1 
			504.9,494.3 503.5,493.8 502.1,493.6 498.4,494 497,480.3 496.4,480.5 492.6,482.5 489.6,485.3 487.4,488.5 486,492.1 
			485.6,495.7 485.9,499.2 487,502.4 488.8,505.2 491,507.5 493.5,509.2 496.2,510.3 498.9,510.7 501.5,510.5 503.9,509.8 
			505.9,508.6 		"/>
		<polygon class="st4" points="528.5,502 528.7,502.1 528.6,500.8 528.4,500.1 528.3,500.2 		"/>
		<polygon class="st4" points="527.1,496 527.2,496 526.8,494.9 526.5,494.3 526.5,494.3 		"/>
		<polygon class="st4" points="499.1,481.2 500,490.5 501.2,480.9 		"/>
		<polygon class="st4" points="502.1,493.6 499.7,493.3 500,490.5 499.1,481.2 501.2,480.9 501.5,479.2 500.7,479.3 497,480.3 
			498.4,494 		"/>
		<polygon class="st4" points="505.7,480.9 503.3,480.6 502,490.7 		"/>
		<polygon class="st4" points="501.2,480.9 500,490.5 499.7,493.3 502.1,493.6 503.5,493.8 501.2,492.9 502,490.7 503.3,480.6 
			505.7,480.9 506.3,479.2 505.5,479.1 501.5,479.2 		"/>
		<polygon class="st4" points="510.3,481.9 507.8,481 504,491.2 		"/>
		<polygon class="st4" points="505.7,480.9 502,490.7 501.2,492.9 503.5,493.8 504.9,494.3 502.8,492.9 504,491.2 507.8,481 
			510.3,481.9 511.3,480.3 510.5,480 506.3,479.2 		"/>
		<polygon class="st4" points="514.8,483.9 512.4,482.4 505.8,492.1 		"/>
		<polygon class="st4" points="510.3,481.9 504,491.2 502.8,492.9 504.9,494.3 506.3,495.1 504.5,493.3 505.8,492.1 512.4,482.4 
			514.8,483.9 516.2,482.6 515.4,482.1 511.3,480.3 		"/>
		<polygon class="st4" points="518.9,487 516.7,484.9 507.4,493.4 507.4,493.4 		"/>
		<polygon class="st4" points="514.8,483.9 505.8,492.1 504.5,493.3 506.3,495.1 507.5,496.3 506.1,494.1 507.4,493.4 507.4,493.4 
			516.7,484.9 518.9,487 520.6,486.1 519.9,485.3 516.2,482.6 		"/>
		<polygon class="st4" points="522.4,491.1 520.6,488.4 508.9,494.8 509,494.8 		"/>
		<polygon class="st4" points="526.5,494.3 526.3,494 526.5,494.3 		"/>
		<polygon class="st4" points="518.9,487 507.4,493.4 506.1,494.1 507.5,496.3 508.5,497.8 507.5,495.2 509,494.8 508.9,494.8 
			520.6,488.4 522.4,491.1 524.4,490.6 524.3,490.4 523.6,489.3 520.6,486.1 		"/>
		<polygon class="st4" points="525,496.1 523.8,492.8 510.2,496.6 510.2,496.7 		"/>
		<polygon class="st4" points="528.4,500.1 528.1,499.2 528.3,500.2 		"/>
		<polygon class="st4" points="522.4,491.1 509,494.8 507.5,495.2 508.5,497.8 509.2,499.5 508.8,496.7 510.2,496.7 510.2,496.6 
			523.8,492.8 525,496.1 527.1,496 526.5,494.3 526.3,494 524.4,490.6 		"/>
		<polygon class="st4" points="526.5,501.6 526,498 511.1,498.7 511.1,498.8 		"/>
		<polygon class="st4" points="528.8,506.5 529,506.5 528.9,505.1 528.9,504.9 		"/>
		<polygon class="st4" points="525,496.1 510.2,496.7 508.8,496.7 509.2,499.5 509.4,501.4 509.7,498.6 511.1,498.8 511.1,498.7 
			526,498 526.5,501.6 528.5,502 528.3,500.2 528.1,499.2 527.2,496 527.1,496 		"/>
		<polygon class="st4" points="526.7,507.6 527,503.8 511.5,500.9 511.4,501.2 		"/>
		<polygon class="st4" points="528.3,511.4 527.8,512.9 528.2,513 		"/>
		<polygon class="st4" points="526.5,501.6 511.1,498.8 509.7,498.6 509.4,501.4 509.2,503.4 510.2,500.6 511.4,501.2 511.5,500.9 
			527,503.8 526.7,507.6 528.6,508.4 528.8,506.5 528.9,504.9 528.9,504.8 528.7,502.1 528.5,502 		"/>
		<polygon class="st4" points="525.4,513.6 526.7,509.8 511.4,503.3 511.3,503.6 		"/>
		<polygon class="st4" points="526.1,517.8 525.3,519.1 525.6,519.3 		"/>
		<polygon class="st4" points="526.7,507.6 511.4,501.2 510.2,500.6 509.2,503.4 508.6,505.3 510.2,502.8 511.3,503.6 511.4,503.3 
			526.7,509.8 525.4,513.6 527.1,514.9 527.8,512.9 528.3,511.4 528.5,510.7 528.9,508.5 528.6,508.4 		"/>
		<polygon class="st4" points="522.7,519.4 525,515.8 510.7,505.6 510.5,506 		"/>
		<polygon class="st4" points="522.4,523.6 521.3,524.8 521.6,525 		"/>
		<polygon class="st4" points="525.4,513.6 511.3,503.6 510.2,502.8 508.6,505.3 507.4,507.1 509.6,505 510.5,506 510.7,505.6 
			525,515.8 522.7,519.4 524.1,521 525.3,519.1 526.1,517.8 526.8,516.6 527.5,515.1 527.1,514.9 		"/>
		<polygon class="st4" points="521.8,521.4 509.5,507.8 509.2,508.2 518.5,524.6 		"/>
		<polygon class="st4" points="516.1,529.8 517.2,528.7 515.8,529.5 		"/>
		<polygon class="st4" points="522.7,519.4 510.5,506 509.6,505 507.4,507.1 505.9,508.6 508.5,507 509.2,508.2 509.5,507.8 
			521.8,521.4 518.5,524.6 519.6,526.4 521.3,524.8 522.4,523.6 523.8,522.3 524.5,521.4 524.1,521 		"/>
		<polygon class="st4" points="517.2,526.4 507.8,509.8 507.3,510.1 513,528.8 		"/>
		<polygon class="st4" points="509.3,533.4 510.7,532.5 509.1,533 		"/>
		<polygon class="st4" points="517.2,528.7 519.3,527.4 519.9,527 519.6,526.4 518.5,524.6 509.2,508.2 508.5,507 505.9,508.6 
			503.9,509.8 506.9,508.8 507.3,510.1 507.8,509.8 517.2,526.4 513,528.8 513.6,530.8 515.8,529.5 		"/>
		<polygon class="st4" points="506.3,531.8 511.3,530.2 505.6,511.3 504.9,511.6 		"/>
		<polygon class="st4" points="513.6,530.8 513,528.8 507.3,510.1 506.9,508.8 503.9,509.8 501.5,510.5 504.8,510.3 504.9,511.6 
			505.6,511.3 511.3,530.2 506.3,531.8 506.5,533.8 509.1,533 510.7,532.5 513.6,531.6 513.8,531.5 		"/>
		<polygon class="st4" points="501.5,535.4 503.1,534.9 501.4,535 		"/>
		<polygon class="st4" points="498.8,533.2 504.4,532.8 502.9,512.4 502.1,512.5 		"/>
		<polygon class="st4" points="493.1,535.6 494.8,535.5 493.1,535.2 		"/>
		<polygon class="st4" points="506.3,531.8 504.9,511.6 504.8,510.3 501.5,510.5 498.9,510.7 502.3,511.2 502.1,512.5 502.9,512.4 
			504.4,532.8 498.8,533.2 498.4,535.2 501.4,535 503.1,534.9 506.5,534.6 506.5,533.8 		"/>
		<polygon class="st4" points="490.7,532.8 496.6,533.8 500,512.9 499,512.7 		"/>
		<polygon class="st4" points="484.4,533.9 486.1,534.2 484.5,533.5 		"/>
		<polygon class="st4" points="498.8,533.2 502.1,512.5 502.3,511.2 498.9,510.7 496.2,510.3 499.5,511.5 499,512.7 500,512.9 
			496.6,533.8 490.7,532.8 489.9,534.7 493.1,535.2 494.8,535.5 498.3,536 498.4,535.2 		"/>
		<polygon class="st4" points="482.4,530.6 488.5,532.9 496.8,512.7 495.8,512.3 		"/>
		<polygon class="st4" points="475.9,530.2 477.6,530.8 476.1,529.8 		"/>
		<polygon class="st4" points="490.7,532.8 499,512.7 499.5,511.5 496.2,510.3 493.5,509.2 496.5,511.2 495.8,512.3 496.8,512.7 
			488.5,532.9 482.4,530.6 481.2,532.3 484.5,533.5 486.1,534.2 489.6,535.5 489.9,534.7 		"/>
		<polygon class="st4" points="474.5,526.4 480.2,530.2 493.7,511.7 492.6,511 		"/>
		<polygon class="st4" points="468.1,524.5 469.6,525.5 468.3,524.2 		"/>
		<polygon class="st4" points="482.4,530.6 495.8,512.3 496.5,511.2 493.5,509.2 491,507.5 493.6,510.2 492.6,511 493.7,511.7 
			480.2,530.2 474.5,526.4 472.9,527.8 476.1,529.8 477.6,530.8 480.7,532.9 481.2,532.3 		"/>
		<polygon class="st4" points="467.4,520.4 472.4,525.6 490.6,510.1 489.7,509.1 		"/>
		<polygon class="st4" points="461.4,517 462.7,518.3 461.7,516.7 		"/>
		<polygon class="st4" points="474.5,526.4 492.6,511 493.6,510.2 491,507.5 488.8,505.2 490.8,508.5 489.7,509.1 490.6,510.1 
			472.4,525.6 467.4,520.4 465.6,521.3 468.3,524.2 469.6,525.5 472.3,528.3 472.9,527.8 		"/>
		<polygon class="st4" points="461.5,512.6 465.5,519.1 487.9,507.7 487.1,506.5 		"/>
		<polygon class="st4" points="456.3,507.8 457.3,509.5 456.6,507.6 		"/>
		<polygon class="st4" points="467.4,520.4 489.7,509.1 490.8,508.5 488.8,505.2 487,502.4 488.3,506.2 487.1,506.5 487.9,507.7 
			465.5,519.1 461.5,512.6 459.5,513.1 461.7,516.7 462.7,518.3 464.7,521.7 465.6,521.3 		"/>
		<polygon class="st4" points="457.4,503.5 459.9,511 485.7,504.7 485.2,503.2 		"/>
		<polygon class="st4" points="453.2,497.5 453.8,499.4 453.6,497.4 		"/>
		<polygon class="st4" points="461.5,512.6 487.1,506.5 488.3,506.2 487,502.4 485.9,499.2 486.3,503.2 485.2,503.2 485.7,504.7 
			459.9,511 457.4,503.5 455.3,503.5 456.6,507.6 457.3,509.5 458.6,513.4 459.5,513.1 		"/>
		<polygon class="st4" points="455.2,493.4 456.1,501.5 484.1,501.2 484,499.5 		"/>
		<polygon class="st4" points="452.5,486.4 452.7,488.4 453,486.4 		"/>
		<polygon class="st4" points="457.4,503.5 485.2,503.2 486.3,503.2 485.9,499.2 485.6,495.7 485,499.8 484,499.5 484.1,501.2 
			456.1,501.5 455.2,493.4 453.2,492.9 453.6,497.4 453.8,499.4 454.3,503.5 455.3,503.5 		"/>
		<polygon class="st4" points="455.5,482.6 454.4,491.1 483.3,497.4 483.6,495.6 		"/>
		<polygon class="st4" points="454.4,475.1 454.2,477.2 454.9,475.3 		"/>
		<polygon class="st4" points="455.2,493.4 484,499.5 485,499.8 485.6,495.7 486,492.1 484.5,496 483.6,495.6 483.3,497.4 
			454.4,491.1 455.5,482.6 453.6,481.8 453,486.4 452.7,488.4 452.2,492.7 453.2,492.9 		"/>
		<polygon class="st4" points="458.3,471.9 455.1,480.3 483.4,493.3 484.1,491.5 		"/>
		<polygon class="st4" points="459,464.3 458.3,466.2 459.5,464.5 		"/>
		<polygon class="st4" points="455.5,482.6 483.6,495.6 484.5,496 486,492.1 487.4,488.5 484.9,492.1 484.1,491.5 483.4,493.3 
			455.1,480.3 458.3,471.9 456.6,470.7 454.9,475.3 454.2,477.2 452.6,481.3 453.6,481.8 		"/>
		<polygon class="st4" points="463.7,461.8 458.4,469.5 484.5,489.2 485.6,487.5 		"/>
		<polygon class="st4" points="466.3,454.4 465.1,456.1 466.7,454.7 		"/>
		<polygon class="st4" points="458.3,471.9 484.1,491.5 484.9,492.1 487.4,488.5 489.6,485.3 486.3,488.3 485.6,487.5 484.5,489.2 
			458.4,469.5 463.7,461.8 462.4,460.2 459.5,464.5 458.3,466.2 455.7,470 456.6,470.7 		"/>
		<polygon class="st4" points="471.7,452.9 464.4,459.5 486.5,485.4 488.1,483.9 		"/>
		<polygon class="st4" points="476.1,446.2 474.5,447.6 476.4,446.6 		"/>
		<polygon class="st4" points="463.7,461.8 485.6,487.5 486.3,488.3 489.6,485.3 492.6,482.5 488.6,484.7 488.1,483.9 486.5,485.4 
			464.4,459.5 471.7,452.9 470.7,451.1 466.7,454.7 465.1,456.1 461.6,459.3 462.4,460.2 		"/>
		<polygon class="st4" points="482,445.8 472.8,450.8 489.4,482 491.6,480.8 		"/>
		<polygon class="st4" points="488,440.2 486.1,441.3 488.3,440.7 		"/>
		<polygon class="st4" points="471.7,452.9 488.1,483.9 488.6,484.7 492.6,482.5 496.4,480.5 491.8,481.7 491.6,480.8 489.4,482 
			472.8,450.8 482,445.8 481.5,443.8 476.4,446.6 474.5,447.6 470.2,450 470.7,451.1 		"/>
		<polygon class="st4" points="494.3,441.1 483.6,444.1 493.2,479.3 495.8,478.6 		"/>
		<polygon class="st4" points="501.7,437 499.6,437.6 501.8,437.5 		"/>
		<polygon class="st4" points="482,445.8 491.6,480.8 491.8,481.7 496.4,480.5 497,480.3 500.7,479.3 495.8,479.5 495.8,478.6 
			493.2,479.3 483.6,444.1 494.3,441.1 494.2,439.1 488.3,440.7 486.1,441.3 481.1,442.7 481.5,443.8 		"/>
		<polygon class="st4" points="508,439.2 496.2,439.7 497.7,477.4 500.7,477.3 		"/>
		<polygon class="st4" points="516.5,436.9 514.2,437 516.5,437.4 		"/>
		<polygon class="st4" points="494.3,441.1 495.8,478.6 495.8,479.5 500.7,479.3 501.5,479.2 505.5,479.1 500.5,478.1 500.7,477.3 
			497.7,477.4 496.2,439.7 508,439.2 508.4,437.2 501.8,437.5 499.6,437.6 494.1,437.8 494.2,439.1 		"/>
		<polygon class="st4" points="522.5,440.6 510.2,438.3 502.8,476.5 506,477.1 		"/>
		<polygon class="st4" points="531.6,440.2 529.3,439.8 531.5,440.7 		"/>
		<polygon class="st4" points="508,439.2 500.7,477.3 500.5,478.1 505.5,479.1 506.3,479.2 510.5,480 505.6,477.9 506,477.1 
			502.8,476.5 510.2,438.3 522.5,440.6 523.4,438.7 516.5,437.4 514.2,437 508.6,436 508.4,437.2 		"/>
		<polygon class="st4" points="537.1,445.3 524.9,440.1 508.3,476.9 511.4,478.2 		"/>
		<polygon class="st4" points="546.4,447 544.1,446.1 546.2,447.5 		"/>
		<polygon class="st4" points="522.5,440.6 506,477.1 505.6,477.9 510.5,480 511.3,480.3 515.4,482.1 510.9,478.9 511.4,478.2 
			508.3,476.9 524.9,440.1 537.1,445.3 538.4,443.6 531.5,440.7 529.3,439.8 523.9,437.5 523.4,438.7 		"/>
		<polygon class="st4" points="550.9,453.4 539.6,445.3 513.7,478.4 516.7,480.6 		"/>
		<polygon class="st4" points="559.9,457.3 557.8,455.9 559.6,457.8 		"/>
		<polygon class="st4" points="537.1,445.3 511.4,478.2 510.9,478.9 515.4,482.1 516.2,482.6 519.9,485.3 516.1,481 516.7,480.6 
			513.7,478.4 539.6,445.3 550.9,453.4 552.5,452.1 546.2,447.5 544.1,446.1 539.2,442.6 538.4,443.6 		"/>
		<polygon class="st4" points="563.2,464.7 553.4,453.9 519,481.3 521.6,484.1 		"/>
		<polygon class="st4" points="571.4,470.8 569.6,468.8 570.9,471.1 		"/>
		<polygon class="st4" points="550.9,453.4 516.7,480.6 516.1,481 519.9,485.3 520.6,486.1 523.6,489.3 523.8,489.6 520.9,484.5 
			521.6,484.1 519,481.3 553.4,453.9 563.2,464.7 565.1,463.8 559.6,457.8 557.8,455.9 553.6,451.2 552.5,452.1 		"/>
		<polygon class="st4" points="573.1,479 565.6,465.8 523.7,485.4 525.7,488.9 		"/>
		<polygon class="st4" points="579.9,486.9 578.6,484.6 579.4,487.2 		"/>
		<polygon class="st4" points="563.2,464.7 521.6,484.1 520.9,484.5 523.8,489.6 524.3,490.4 524.4,490.6 526.3,494 526.5,494.3 
			526.8,494.9 525,489 525.7,488.9 523.7,485.4 565.6,465.8 573.1,479 575.1,478.6 570.9,471.1 569.6,468.8 566.4,463.2 
			565.1,463.8 		"/>
		<polygon class="st4" points="579.8,495.6 575.3,480.6 527.6,490.5 528.8,494.6 		"/>
		<polygon class="st4" points="584.8,505.1 584,502.5 584.2,505.3 		"/>
		<polygon class="st4" points="573.1,479 525.7,488.9 525,489 526.8,494.9 527.2,496 528.1,499.2 528.4,500.1 528.6,500.8 
			528.2,494.6 528.8,494.6 527.6,490.5 575.3,480.6 579.8,495.6 582,495.7 579.4,487.2 578.6,484.6 576.6,478.3 575.1,478.6 		"/>
		<polygon class="st4" points="582.8,513.9 581.7,497.7 530.3,496.6 530.7,501 		"/>
		<polygon class="st4" points="585.6,524.6 585.4,521.8 584.9,524.6 		"/>
		<polygon class="st4" points="579.8,495.6 528.8,494.6 528.2,494.6 528.6,500.8 528.7,502.1 528.9,504.8 528.9,505.1 529,506.5 
			529.1,507.2 530.1,500.9 530.7,501 530.3,496.6 581.7,497.7 582.8,513.9 584.9,514.5 584.2,505.3 584,502.5 583.5,495.7 
			582,495.7 		"/>
		<polygon class="st4" points="581.6,533 584.2,516.4 531.7,503.3 531,507.9 		"/>
		<polygon class="st4" points="581.8,544.2 582.2,541.4 581.1,544.1 		"/>
		<polygon class="st4" points="582.8,513.9 530.7,501 530.1,500.9 529.1,507.2 528.9,508.5 528.5,510.7 528,513.7 530.6,507.7 
			531,507.9 531.7,503.3 584.2,516.4 581.6,533 583.4,534 584.9,524.6 585.4,521.8 586.5,514.9 584.9,514.5 		"/>
		<polygon class="st4" points="575.7,551.9 582.4,535.7 531.6,510.4 529.7,514.9 		"/>
		<polygon class="st4" points="573.2,563.1 574.4,560.4 572.6,562.8 		"/>
		<polygon class="st4" points="581.6,533 531,507.9 530.6,507.7 528,513.7 527.5,515.1 526.8,516.6 525.4,520.1 529.4,514.6 
			529.7,514.9 531.6,510.4 582.4,535.7 575.7,551.9 577.3,553.2 581.1,544.1 582.2,541.4 585,534.8 583.4,534 		"/>
		<polygon class="st4" points="565.2,569.6 576,554.7 529.8,517.5 526.8,521.6 		"/>
		<polygon class="st4" points="560,580.1 561.8,577.7 559.5,579.6 		"/>
		<polygon class="st4" points="575.7,551.9 529.7,514.9 529.4,514.6 525.4,520.1 524.5,521.4 523.8,522.3 521.2,525.8 526.5,521.3 
			526.8,521.6 529.8,517.5 576,554.7 565.2,569.6 566.5,571.2 572.6,562.8 574.4,560.4 578.8,554.4 577.3,553.2 		"/>
		<polygon class="st4" points="564.9,572.4 526.3,524.2 522.1,527.7 550.3,584.8 		"/>
		<polygon class="st4" points="542.5,594.1 544.8,592.1 542,593.5 		"/>
		<polygon class="st4" points="565.2,569.6 526.8,521.6 526.5,521.3 521.2,525.8 519.9,527 519.3,527.4 515.5,530.6 522,527.4 
			522.1,527.7 526.3,524.2 564.9,572.4 550.3,584.8 551.2,586.7 559.5,579.6 561.8,577.7 567.7,572.6 566.5,571.2 		"/>
		<polygon class="st4" points="549.4,587.5 521.1,530.1 516,532.7 531.3,596.7 		"/>
		<polygon class="st4" points="521.2,604 523.9,602.6 520.8,603.4 		"/>
		<polygon class="st4" points="515.9,532.4 516,532.7 521.1,530.1 549.4,587.5 531.3,596.7 531.8,598.7 542,593.5 544.8,592.1 
			552,588.4 551.2,586.7 550.3,584.8 522.1,527.7 522,527.4 515.5,530.6 513.8,531.5 513.6,531.6 508.6,534.2 		"/>
		<polygon class="st4" points="529.8,599.2 514.4,534.8 508.4,536.3 509,604.2 		"/>
		<polygon class="st4" points="497,609.1 500.1,608.4 496.8,608.4 		"/>
		<polygon class="st4" points="508.4,536 508.4,536.3 514.4,534.8 529.8,599.2 509,604.2 509,606.2 520.8,603.4 523.9,602.6 
			532.2,600.6 531.8,598.7 531.3,596.7 516,532.7 515.9,532.4 508.6,534.2 500.6,536.1 		"/>
		<polygon class="st4" points="507,606.3 506.5,538 499.9,538.1 484.4,606.5 		"/>
		<polygon class="st4" points="471,608.6 474.3,608.6 471,607.9 		"/>
		<polygon class="st4" points="499.9,537.9 499.9,538.1 506.5,538 507,606.3 484.4,606.5 483.9,608.5 496.8,608.4 500.1,608.4 
			509,608.3 509,606.2 509,604.2 508.4,536.3 508.4,536 500.6,536.1 491.9,536.2 		"/>
		<polygon class="st4" points="481.9,608.2 497.5,539.5 490.7,538 458.5,603.1 		"/>
		<polygon class="st4" points="444.4,602.1 447.8,602.9 444.6,601.4 		"/>
		<polygon class="st4" points="490.7,537.8 490.7,538 497.5,539.5 481.9,608.2 458.5,603.1 457.6,605 471,607.9 474.3,608.6 
			483.4,610.6 483.9,608.5 484.4,606.5 499.9,538.1 499.9,537.9 491.9,536.2 482.9,534.2 		"/>
		<polygon class="st4" points="455.7,604.3 488,538.8 481.3,535.7 432.8,593.8 		"/>
		<polygon class="st4" points="418.7,589.4 422,591 419.1,588.7 		"/>
		<polygon class="st4" points="481.3,535.6 481.3,535.7 488,538.8 455.7,604.3 432.8,593.8 431.5,595.3 444.6,601.4 447.8,602.9 
			456.7,606.9 457.6,605 458.5,603.1 490.7,538 490.7,537.8 482.9,534.2 474.2,530.2 		"/>
		<polygon class="st4" points="429.8,594.3 478.5,536 472.2,531.2 408.7,578.4 		"/>
		<polygon class="st4" points="395.4,570.8 398.4,573 395.9,570.1 		"/>
		<polygon class="st4" points="472.2,531.2 472.2,531.2 478.5,536 429.8,594.3 408.7,578.4 407,579.6 419.1,588.7 422,591 
			430.1,597.1 431.5,595.3 432.8,593.8 481.3,535.7 481.3,535.6 474.2,530.2 466.2,524.1 		"/>
		<polygon class="st4" points="405.5,578.3 469.3,530.9 463.7,524.3 463.9,524.7 387.6,557.3 		"/>
		<polygon class="st4" points="375.9,546.6 378.4,549.5 376.5,546.1 		"/>
		<polygon class="st4" points="463.7,524.3 469.3,530.9 405.5,578.3 387.6,557.3 385.7,558.1 395.9,570.1 398.4,573 405.2,581 
			407,579.6 408.7,578.4 472.2,531.2 472.2,531.2 466.2,524.1 459.4,516.2 		"/>
		<polygon class="st4" points="384.3,556.5 461.1,523.7 456.7,515.4 456.9,516.1 371,531.2 		"/>
		<polygon class="st4" points="361.6,517.8 363.4,521.3 362.4,517.4 		"/>
		<polygon class="st4" points="456.7,515.4 461.1,523.7 384.3,556.5 371,531.2 368.9,531.6 376.5,546.1 378.4,549.5 383.4,559.1 
			385.7,558.1 387.6,557.3 463.9,524.7 463.7,524.3 459.4,516.2 454.4,506.6 		"/>
		<polygon class="st4" points="367.8,529.7 454.4,514.5 451.8,504.7 451.8,505.9 360,501.2 		"/>
		<polygon class="st4" points="353.7,485.5 354.8,489.5 354.6,485.3 		"/>
		<polygon class="st4" points="451.8,504.7 454.4,514.5 367.8,529.7 360,501.2 357.9,501 362.4,517.4 363.4,521.3 366.4,532 
			368.9,531.6 371,531.2 456.9,516.1 456.7,515.4 454.4,506.6 451.4,495.8 		"/>
		<polygon class="st4" points="357.2,499 449.7,503.8 449.3,492.9 449,494.5 356,468.4 		"/>
		<polygon class="st4" points="353.3,451.3 353.5,455.5 354.3,451.4 		"/>
		<polygon class="st4" points="449.3,492.9 449.7,503.8 357.2,499 356,468.4 354,467.8 354.6,485.3 354.8,489.5 355.2,500.9 
			357.9,501 360,501.2 451.8,505.9 451.8,504.7 451.4,495.8 451,484.3 		"/>
		<polygon class="st4" points="353.5,465.7 447.4,492 449.7,480.4 448.8,482.4 359.6,434.6 		"/>
		<polygon class="st4" points="361,416.9 360.2,421.1 362,417.2 		"/>
		<polygon class="st4" points="449.7,480.4 447.4,492 353.5,465.7 359.6,434.6 357.7,433.6 354.3,451.4 353.5,455.5 351.2,467.1 
			354,467.8 356,468.4 449,494.5 449.3,492.9 451,484.3 453.2,472.6 		"/>
		<polygon class="st4" points="357.7,431.3 447.9,479.6 453.1,468.1 451.5,470.1 371.3,401.4 		"/>
		<polygon class="st4" points="377,384.1 375.2,388.1 377.9,384.6 		"/>
		<polygon class="st4" points="453.1,468.1 447.9,479.6 357.7,431.3 371.3,401.4 369.7,400 362,417.2 360.2,421.1 355.1,432.2 
			357.7,433.6 359.6,434.6 448.8,482.4 449.7,480.4 453.2,472.6 458.3,461.4 		"/>
		<polygon class="st4" points="370.1,397.8 451.2,467.2 459.6,456.6 457.2,458.4 391.2,370.8 		"/>
		<polygon class="st4" points="401.1,354.8 398.4,358.4 402,355.5 		"/>
		<polygon class="st4" points="459.6,456.6 451.2,467.2 370.1,397.8 391.2,370.8 390,369.1 377.9,384.6 375.2,388.1 367.4,398 
			369.7,400 371.3,401.4 451.5,470.1 453.1,468.1 458.3,461.4 466.2,451.3 		"/>
		<polygon class="st4" points="390.8,366.9 457.6,455.6 468.9,446.6 465.9,448 418.9,344.7 		"/>
		<polygon class="st4" points="432.8,331.1 429.2,334 433.5,332 		"/>
		<polygon class="st4" points="468.9,446.6 457.6,455.6 390.8,366.9 418.9,344.7 418,342.8 402,355.5 398.4,358.4 388,366.6 
			390,369.1 391.2,370.8 457.2,458.4 459.6,456.6 466.2,451.3 476.7,443 		"/>
		<polygon class="st4" points="419.3,340.8 466.9,445.4 480.9,438.8 477.2,439.6 453.5,324.9 		"/>
		<polygon class="st4" points="470.9,314.5 466.5,316.6 471.4,315.6 		"/>
		<polygon class="st4" points="480.9,438.8 466.9,445.4 419.3,340.8 453.5,324.9 453.1,322.8 433.5,332 429.2,334 416.7,339.8 
			418,342.8 418.9,344.7 465.9,448 468.9,446.6 476.7,443 489.5,437 		"/>
		<polygon class="st4" points="454.8,321.1 478.8,437.2 495,433.8 490.8,433.8 493.7,313 		"/>
		<polygon class="st4" points="513.9,306.8 509,307.8 514.1,307.9 		"/>
		<polygon class="st4" points="495,433.8 478.8,437.2 454.8,321.1 493.7,313 493.7,311 471.4,315.6 466.5,316.6 452.4,319.5 
			453.1,322.8 453.5,324.9 477.2,439.6 480.9,438.8 489.5,437 503.9,434 		"/>
		<polygon class="st4" points="495.8,309.5 492.9,431.8 510.7,432.2 506.2,431.1 537.7,310.4 		"/>
		<polygon class="st4" points="559.8,308.9 554.6,308.8 559.8,310.1 		"/>
		<polygon class="st4" points="510.7,432.2 492.9,431.8 495.8,309.5 537.7,310.4 538.2,308.4 514.1,307.9 509,307.8 493.8,307.5 
			493.7,311 493.7,313 490.8,433.8 495,433.8 503.9,434 519.5,434.4 		"/>
		<polygon class="st4" points="540.6,307.4 508.6,429.6 527.2,434.2 522.6,431.9 583.5,318.1 		"/>
		<polygon class="st4" points="606.4,321.7 601.1,320.4 606.1,322.9 		"/>
		<polygon class="st4" points="527.2,434.2 508.6,429.6 540.6,307.4 583.5,318.1 584.5,316.2 559.8,310.1 554.6,308.8 539.2,305 
			538.2,308.4 537.7,310.4 506.2,431.1 510.7,432.2 519.5,434.4 535.4,438.4 		"/>
		<polygon class="st4" points="587.1,315.6 525.3,431.1 543.6,440.2 539.2,436.6 628.7,336.4 		"/>
		<polygon class="st4" points="650.6,346.4 651.2,345.3 646,342.8 		"/>
		<polygon class="st4" points="543.6,440.2 525.3,431.1 587.1,315.6 628.7,336.4 630,334.8 606.1,322.9 601.1,320.4 586.2,313 
			584.5,316.2 583.5,318.1 522.6,431.9 527.2,434.2 535.4,438.4 550.8,446 		"/>
		<polygon class="st4" points="632.8,334.7 542.1,436.4 559,450.1 555.1,445.2 670.6,365.2 		"/>
		<polygon class="st4" points="559,450.1 542.1,436.4 632.8,334.7 670.6,365.2 672.3,364 650.6,346.4 646,342.8 632.6,331.9 
			630,334.8 628.7,336.4 539.2,436.6 543.6,440.2 550.8,446 564.8,457.3 		"/>
		<polygon class="st4" points="690.6,380.4 691.5,379.5 686.8,375.7 		"/>
		<polygon class="st4" points="675.2,364.4 558,445.6 572.5,463.6 569.4,457.5 706.8,403.9 		"/>
		<polygon class="st4" points="572.5,463.6 558,445.6 675.2,364.4 706.8,403.9 708.8,403.2 690.6,380.4 686.8,375.7 675.6,361.7 
			672.3,364 670.6,365.2 555.1,445.2 559,450.1 564.8,457.3 576.5,471.9 		"/>
		<polygon class="st4" points="723.6,423.8 724.7,423.1 720.8,418.2 		"/>
		<polygon class="st4" points="711.7,404.2 572.2,458.6 582.9,480.5 581.2,473.2 734.8,451.3 		"/>
		<polygon class="st4" points="582.9,480.5 572.2,458.6 711.7,404.2 734.8,451.3 736.9,451 723.6,423.8 720.8,418.2 712.7,401.7 
			708.8,403.2 706.8,403.9 569.4,457.5 572.5,463.6 576.5,471.9 585,489.3 		"/>
		<polygon class="st4" points="747.2,475.1 748.5,474.6 745.7,468.9 		"/>
		<polygon class="st4" points="739.7,452.6 583.7,474.9 589.6,499.8 589.5,491.7 752.3,505.3 		"/>
		<polygon class="st4" points="759.2,532 760.7,531.8 759.2,525.4 		"/>
		<polygon class="st4" points="589.6,499.8 583.7,474.9 739.7,452.6 752.3,505.3 754.4,505.5 747.2,475.1 745.7,468.9 741.3,450.3 
			736.9,451 734.8,451.3 581.2,473.2 582.9,480.5 585,489.3 589.7,508.7 		"/>
		<polygon class="st4" points="757,507.7 591.6,493.9 591.7,520.8 593.7,512.2 594.7,512.6 757.4,563.6 		"/>
		<polygon class="st4" points="758.1,592 758.5,592 759.6,592.1 759.6,585.4 		"/>
		<polygon class="st4" points="591.7,520.8 591.6,493.9 757,507.7 757.4,563.6 759.4,564.3 759.2,532 759.2,525.4 759,505.8 
			754.4,505.5 752.3,505.3 589.5,491.7 589.6,499.8 589.7,508.7 589.8,529.3 		"/>
		<polygon class="st4" points="761.7,567.1 595.2,514.8 588.9,542.3 593.1,533.8 594,534.4 748.9,623.4 		"/>
		<polygon class="st4" points="742.7,652 743.3,652.1 744.3,652.5 745.8,645.8 		"/>
		<polygon class="st4" points="588.9,542.3 595.2,514.8 761.7,567.1 748.9,623.4 750.7,624.5 758.1,592 759.6,585.4 763.9,566.6 
			764.1,565.7 759.4,564.3 757.4,563.6 594.7,512.6 593.7,512.2 591.7,520.8 589.8,529.3 585.1,550 		"/>
		<polygon class="st4" points="752.5,627.8 593.9,536.6 580.8,563.2 587.3,555.4 588.1,556.1 725.9,681.5 		"/>
		<polygon class="st4" points="712.8,708.7 713.4,709 714.3,709.5 717.4,703.2 		"/>
		<polygon class="st4" points="580.8,563.2 593.9,536.6 752.5,627.8 725.9,681.5 727.4,682.9 742.7,652 745.8,645.8 755.1,627 
			750.7,624.5 748.9,623.4 594,534.4 593.1,533.8 588.9,542.3 585.1,550 575.3,569.7 		"/>
		<polygon class="st4" points="728.6,686.7 587.5,558.3 567.5,582.2 576.3,575.7 688.6,734.6 		"/>
		<polygon class="st4" points="668.7,758.7 669.2,759.1 670,759.8 674.7,754.2 		"/>
		<polygon class="st4" points="567.5,582.2 587.5,558.3 728.6,686.7 688.6,734.6 689.7,736.3 712.8,708.7 717.4,703.2 731.4,686.5 
			727.4,682.9 725.9,681.5 588.1,556.1 587.3,555.4 580.8,563.2 575.3,569.7 560.6,587.3 		"/>
		<polygon class="st4" points="560.1,593.6 560.5,594.5 637.7,779.2 690.2,740.3 575.8,578.5 549.3,598.2 		"/>
		<path class="st4" d="M674.7,754.2l18.2-13.5l-3.2-4.5l-1.2-1.7L576.3,575.7l-8.8,6.5l-6.8,5.1l-19.2,14.2l7.9-3.4l26.5-19.6
			l114.3,161.8l-52.5,38.9l0,0.1c3.4-1.7,6.8-3.4,10.1-5.2l20.8-15.4L674.7,754.2z"/>
		<path class="st4" d="M559.1,596.2l-32.1,13.7l12.4-2.2l0.2,1l33.7,193.4c21.9-5.1,42.9-12.5,62.8-22L559.1,596.2z"/>
		<path class="st4" d="M560.5,594.5l-0.4-0.9l-10.8,4.6l-7.9,3.4l-23.1,9.8l8.6-1.5l32.1-13.7l76.8,184c0.6-0.3,1.2-0.6,1.8-0.9
			l0-0.1L560.5,594.5z"/>
		<path class="st4" d="M537.7,610l-36.5,6.4l13.5,0.7l-0.1,1L503.9,810c0,0,0.1,0,0.1,0c23.1,0,45.6-2.6,67.2-7.4L537.7,610z"/>
		<path class="st4" d="M539.5,608.7l-0.2-1l-12.4,2.2l-8.6,1.5l-26,4.5l8.9,0.5l36.5-6.4l33.5,192.5c0.7-0.1,1.3-0.3,2-0.4
			L539.5,608.7z"/>
		<path class="st4" d="M512.5,619l-39.3-2.1l13.9,3.9l-0.3,1l-53.4,180c22,5.2,44.9,8,68.5,8.2L512.5,619z"/>
		<path class="st4" d="M514.6,618.1l0.1-1l-13.5-0.7l-8.9-0.5l-27.8-1.5l8.8,2.5l39.3,2.1l-10.7,191c0.7,0,1.3,0,2,0L514.6,618.1z"
			/>
		<path class="st4" d="M484.6,622.2l-40.2-11.3l13.5,7.3l-91.9,159c20.6,10.4,42.5,18.6,65.5,24.2L484.6,622.2z"/>
		<path class="st4" d="M486.8,621.8l0.3-1l-13.9-3.9l-8.8-2.5l-28.2-7.9l8.1,4.4l40.2,11.3l-53.1,179.1c0.6,0.2,1.3,0.3,1.9,0.5
			L486.8,621.8z"/>
		<path class="st4" d="M455.2,618.9L416.3,598l12.4,10.6L306.1,737.3c17.8,15.1,37.3,28.2,58.2,38.9L455.2,618.9z"/>
		<path class="st4" d="M458,618.1l-13.5-7.3l-8.1-4.4l-27-14.5l7.1,6.1l38.9,20.9l-91,157.4c0.6,0.3,1.2,0.6,1.8,0.9L458,618.1z"/>
		<path class="st4" d="M425.8,608.8l-35.3-30.3l10.4,13.8L400,593L257.3,685c13.8,18.7,29.6,35.9,47.2,51L425.8,608.8z"/>
		<path class="st4" d="M428.7,608.7L416.3,598l-7.1-6.1L385,571.1l5.6,7.4l35.3,30.3L304.5,736c0.5,0.4,1,0.9,1.5,1.3L428.7,608.7z"
			/>
		<path class="st4" d="M398,591.9l-29.3-39l7.5,16.7l-1,0.4l-152.9,54c9,21.2,20.4,41.1,33.7,59.5L398,591.9z"/>
		<path class="st4" d="M400,593l0.9-0.6l-10.4-13.8l-5.6-7.4l-20-26.6l3.8,8.4l29.3,39l-141.9,91.6c0.4,0.5,0.8,1.1,1.2,1.6L400,593
			z"/>
		<path class="st4" d="M373.6,568.4l-21-46.4l3.9,18.9l-1.1,0.1l-152.6,16.9c4,22.3,10.4,43.8,18.9,64.1L373.6,568.4z"/>
		<path class="st4" d="M375.3,569.9l1-0.4l-7.5-16.7l-3.8-8.4l-14.2-31.4l1.8,8.9l21,46.4l-152,53.7c0.3,0.6,0.5,1.2,0.8,1.8
			L375.3,569.9z"/>
		<path class="st4" d="M354.1,539.2l-10.7-51.9l-0.5,20.3l-1.1-0.1L198.3,491c-0.2,4.3-0.3,8.7-0.3,13c0,17.7,1.5,35.1,4.4,52
			L354.1,539.2z"/>
		<path class="st4" d="M355.4,541.1l1.1-0.1l-3.9-18.9l-1.8-8.9l-7.1-34.8l-0.2,8.9l10.7,51.9L202.4,556c0.1,0.7,0.2,1.3,0.3,2
			L355.4,541.1z"/>
		<path class="st4" d="M341,505.3l1.4-55.1l-5.4,20.7l-1-0.4L208,426c-5.3,20.2-8.6,41.3-9.7,62.9L341,505.3z"/>
		<path class="st4" d="M341.8,507.4l1.1,0.1l0.5-20.3l0.2-8.9l0.9-36.6l-2.2,8.4l-1.4,55.1l-142.6-16.4c0,0.7,0,1.3-0.1,2
			L341.8,507.4z"/>
		<path class="st4" d="M335.5,468.3l14.6-55.5l-10.6,19.8l-0.9-0.6l-107.6-66.3c-9.4,18.5-16.9,38-22.4,58.4L335.5,468.3z"/>
		<path class="st4" d="M335.9,470.5l1,0.4l5.4-20.7l2.2-8.4l9.6-36.6l-4.1,7.6l-14.6,55.5l-127-44.1c-0.2,0.6-0.4,1.3-0.5,1.9
			L335.9,470.5z"/>
		<path class="st4" d="M338.7,429.8l28.3-52.7l-15.8,17.7l-85.5-82.7c-12.9,16-24.3,33.4-33.8,51.9L338.7,429.8z"/>
		<path class="st4" d="M338.5,432l0.9,0.6l10.6-19.8l4.1-7.6l18.5-34.5l-5.7,6.3l-28.3,52.7L231.9,364c-0.3,0.6-0.6,1.2-0.9,1.8
			L338.5,432z"/>
		<path class="st4" d="M351,391.9l41.8-46.7l-20.7,14.3l-0.6-0.9l-60.8-91.9c-16,13.1-30.7,27.8-43.8,43.8L351,391.9z"/>
		<path class="st4" d="M351.1,394.8l15.8-17.7l5.7-6.3l27.2-30.4l-7,4.8L351,391.9l-84.1-81.3c-0.4,0.5-0.8,1-1.3,1.6L351.1,394.8z"
			/>
		<path class="st4" d="M372.7,356.7l54.2-37.4l-24.8,9.6l-0.4-0.9l-36.9-96.5c-18.7,9.6-36.3,21-52.5,34.1L372.7,356.7z"/>
		<path class="st4" d="M371.6,358.6l0.6,0.9l20.7-14.3l7-4.8l35.1-24.2l-8,3.1l-54.2,37.4l-60.3-91.2c-0.5,0.4-1,0.8-1.6,1.3
			L371.6,358.6z"/>
		<path class="st4" d="M403.2,326.3l64.7-25.1l-28,4l-0.1-1L426.2,208c-20.8,5.5-40.7,13.1-59.6,22.5L403.2,326.3z"/>
		<path class="st4" d="M401.6,327.9l0.4,0.9l24.8-9.6l8-3.1l41.7-16.2l-8.7,1.2l-64.7,25.1l-36.6-95.8c-0.6,0.3-1.2,0.6-1.8,0.9
			L401.6,327.9z"/>
		<path class="st4" d="M441.6,302.8l187.7-26.6l-7.8-54.8C585.4,206.3,545.7,198,504,198c-26.2,0-51.6,3.3-75.9,9.5L441.6,302.8z"/>
		<path class="st4" d="M439.8,304.1l0.1,1l28-4l8.7-1.2l154-21.8l1-0.1l-7.9-55.6c-0.7-0.3-1.4-0.6-2.1-0.9l7.8,54.8l-187.7,26.6
			l-13.5-95.4c-0.7,0.2-1.3,0.3-1.9,0.5L439.8,304.1z"/>
	</g>
	<g class="st6">
		<path class="st7" d="M807.1,545.2l-78.8-155.2l-35.2-41.4L651,318.1l-46.4-19.2l-48-7.6l-47,3.4l-43.8,13.4l-38.5,22L395.7,359
			l-23.8,33.6l-15.3,36.2l-6.7,36.9l1.5,35.5l9,32.5l15.5,28.1l20.6,22.7l24.3,16.5l26.5,10l27.2,3.4l26.5-2.8l24.5-8.4l21.4-13.1
			l17.4-16.8l12.9-19.3l8-20.7l3.2-20.9l-1.5-20l-5.7-18.2l-9.2-15.6l-12-12.4l-14-8.8l-15.2-5.1l-15.4-1.4l-14.9,2l-13.7,5.2
			l-11.8,7.8l-9.5,9.8l-6.9,11.1l-4.2,11.8l-1.4,11.8l1.2,11.2l3.5,10.1l5.5,8.6l7,6.8l8.1,4.7l8.7,2.6l8.7,0.5l8.4-1.4l7.6-3.1
			l6.5-4.6l5.2-5.7l3.7-6.4l2.1-6.7l0.6-6.7l-0.9-6.3l-2.2-5.6l-3.2-4.7l-4.1-3.7l-4.7-2.5l-4.9-1.3l-7.8-0.2L506,438l13.5,0.4
			l0.3-0.9l3.8,1l0.3,0l0,0.1l9.3,2.5l0.5-0.9l3.6,2l0.2,0.1l0,0.1l8.8,4.8l0.7-0.8l3.2,2.9l0.2,0.1l0,0.1l7.7,7l0.9-0.6l2.6,3.7
			l0.2,0.2l0,0l6.1,9l1.1-0.4l1.7,4.5l0.1,0.2l0,0l4.1,10.7l1.2-0.2l0.7,5l0.1,0.2l0,0l1.6,11.9l1.2,0.1l-0.5,5.3l0,0.2l-0.1,0
			l-1.1,12.7l1.2,0.4l-1.7,5.3l0,0.2l-0.1,0l-4.1,12.7l1.1,0.7l-2.9,5l-0.1,0.2l-0.1,0l-7,12.1l0.9,0.9l-4.1,4.4l-0.1,0.2l-0.1,0
			l-9.9,10.8l0.7,1.2l-5.1,3.6l-0.2,0.2l0,0l-12.4,8.7l0.5,1.4l-5.9,2.4l-0.3,0.2l0-0.1l-14.5,6l0.1,1.5l-6.5,1.1l-0.4,0.1l0-0.1
			l-15.9,2.7l-0.2,1.6l-6.8-0.4l-0.4,0.1l0-0.1l-16.5-1l-0.6,1.6l-6.8-2l-0.4,0l0-0.1l-16.4-4.9l-1,1.5l-6.3-3.7l-0.4-0.1l0-0.1
			l-15.3-8.9l-1.3,1.3l-5.5-5.3l-0.4-0.2l0.1-0.1l-13.3-12.8l-1.6,1l-4.3-6.8l-0.3-0.3l0.1-0.1l-10.4-16.3l-1.9,0.7l-2.8-8l-0.2-0.3
			l0.1-0.1l-6.7-19.2l-2.1,0.2l-0.9-8.9l-0.1-0.4l0.1,0l-2.3-21.3l-2.1-0.2l1.1-9.3l0-0.4l0.1,0l2.7-22.4l-2.1-0.7l3.3-9.2l0-0.4
			l0.1,0l7.9-22.4l-1.9-1.2l5.4-8.7l0.1-0.4l0.1,0l13.1-21.1l-1.6-1.7l7.4-7.6l0.3-0.4l0.1,0.1l18.1-18.5l-1.2-2.1l9.2-6l0.4-0.4
			l0.1,0.1l22.4-14.7l-0.7-2.5l10.6-4l0.5-0.3l0.1,0.1l25.9-9.8l-0.1-2.7l11.6-1.6l0.7-0.2l0,0.2l28.2-3.9l0.5-2.8l12,1.1l0.7-0.1
			l0,0.2l29.2,2.7l1.1-2.8l11.8,4l0.8,0.1l0,0.2l28.7,9.7l1.8-2.6l11,6.9l0.7,0.3l-0.1,0.2l26.5,16.7l2.4-2.3l9.5,9.8l0.7,0.4
			l-0.1,0.2l22.8,23.4l3-1.7l7.3,12.3l0.5,0.5l-0.1,0.1l17.5,29.5l3.4-1.1l4.5,14.3l0.4,0.6l-0.1,0.1l10.7,34.4l3.7-0.3l1.2,15.8
			l0.2,0.7L738,485l2.8,37.9l3.7,0.5l-2.5,16.4l0.1,0.7l-0.2,0l-6,39.6l3.6,1.4l-6.3,16.2l-0.1,0.7l-0.2,0l-15.2,39.2l3.3,2.3
			l-10,15.1l-0.3,0.7l-0.2-0.1l-24.4,36.7l2.8,3.2l-13.5,13l-0.5,0.7l-0.2-0.1l-33,31.8l2,3.9l-16.6,10.2l-0.7,0.7l-0.1-0.2
			l-40.5,24.8l1.1,4.4l-19,6.5l-1,0.6l-0.1-0.2l-46.4,15.8l0,1.8c147.5-7.9,267.2-120.2,286.6-264.4L807.1,545.2z"/>
		<polygon points="523.9,438.5 523.6,438.5 523.9,438.6 		"/>
		<g>
			<g>
				<g>
					<polygon class="st8" points="510.1,491.4 510.4,492.6 523.9,493.6 522.8,489.5 					"/>
					<polygon points="510.4,492.6 510.1,491.4 522.8,489.5 523.9,493.6 524.5,493.6 523.2,488.9 509.4,490.9 510.2,493.7 
						510.1,492.6 					"/>
				</g>
			</g>
			<g>
				<g>
					<polygon class="st8" points="510.7,492.9 510.7,494.2 524.3,498.3 524.1,493.9 					"/>
					<polygon points="510.7,494.2 510.7,492.9 524.1,493.9 524.3,498.3 524.9,498.5 524.6,493.4 510.1,492.3 510.2,495.2 
						510.4,494.2 					"/>
				</g>
			</g>
			<g>
				<g>
					<polygon class="st8" points="510.9,494.5 510.6,495.9 523.6,503.3 524.4,498.7 					"/>
					<polygon points="510.6,495.9 510.9,494.5 524.4,498.7 523.6,503.3 524.1,503.6 525.1,498.4 510.4,493.8 509.9,496.8 
						510.3,495.8 					"/>
				</g>
			</g>
			<g>
				<g>
					<polygon class="st8" points="510.7,496.3 510.1,497.6 521.7,508.1 523.6,503.7 					"/>
					<polygon points="510.1,497.6 510.7,496.3 523.6,503.7 521.7,508.1 522.2,508.5 524.4,503.5 510.4,495.4 509.1,498.3 
						509.9,497.4 					"/>
				</g>
			</g>
			<g>
				<g>
					<polygon class="st8" points="510.2,498 509.2,499.2 518.6,512.6 521.6,508.6 					"/>
					<polygon points="509.2,499.2 510.2,498 521.6,508.6 518.6,512.6 519,513.1 522.5,508.5 510.1,497.1 508,499.7 509,498.9 					
						"/>
				</g>
			</g>
			<g>
				<g>
					<polygon class="st8" points="509.2,499.6 507.9,500.7 514.4,516.4 518.4,513 					"/>
					<polygon points="507.9,500.7 509.2,499.6 518.4,513 514.4,516.4 514.7,517.1 519.3,513.2 509.3,498.6 506.6,500.9 507.8,500.3 
											"/>
				</g>
			</g>
			<g>
				<g>
					<polygon class="st8" points="507.8,501 506.2,501.8 509.1,519.3 514.1,516.8 					"/>
					<polygon points="506.2,501.8 507.8,501 514.1,516.8 509.1,519.3 509.3,520 515,517.2 508.1,500.1 504.8,501.7 506.2,501.4 
											"/>
				</g>
			</g>
			<g>
				<g>
					<polygon class="st8" points="506,502.1 504.2,502.5 503.1,521 508.7,519.6 					"/>
					<polygon points="504.2,502.5 506,502.1 508.7,519.6 503.1,521 503,521.8 509.5,520.2 506.6,501.2 502.8,502.1 504.3,502.1 
											"/>
				</g>
			</g>
			<g>
				<g>
					<polygon class="st8" points="503.9,502.8 502,502.8 496.5,521.3 502.6,521.3 					"/>
					<polygon points="502,502.8 503.9,502.8 502.6,521.3 496.5,521.3 496.2,522.1 503.3,522 504.7,502 500.7,502.1 502.1,502.4 
											"/>
				</g>
			</g>
			<g>
				<g>
					<polygon class="st8" points="501.6,503 499.7,502.6 489.6,520 495.9,521.4 					"/>
					<polygon points="499.7,502.6 501.6,503 495.9,521.4 489.6,520 489.2,520.8 496.4,522.4 502.6,502.5 498.5,501.5 499.9,502.2 
											"/>
				</g>
			</g>
			<g>
				<g>
					<polygon class="st8" points="499.2,502.7 497.3,501.8 482.9,517.2 489,520.1 					"/>
					<polygon points="497.3,501.8 499.2,502.7 489,520.1 482.9,517.2 482.2,517.8 489.3,521.1 500.4,502.4 496.3,500.4 497.6,501.5 
											"/>
				</g>
			</g>
			<g>
				<g>
					<polygon class="st8" points="496.8,501.9 495.1,500.5 476.6,512.7 482.2,517 					"/>
					<polygon points="495.1,500.5 496.8,501.9 482.2,517 476.6,512.7 475.8,513.2 482.3,518.2 498.1,501.8 494.4,498.9 495.5,500.2 
											"/>
				</g>
			</g>
			<g>
				<g>
					<polygon class="st8" points="494.5,500.4 493.1,498.6 471.3,506.7 476,512.4 					"/>
					<polygon points="493.1,498.6 494.5,500.4 476,512.4 471.3,506.7 470.4,507 475.8,513.6 495.9,500.6 492.8,496.8 493.6,498.4 
											"/>
				</g>
			</g>
			<g>
				<g>
					<polygon class="st8" points="492.6,498.4 491.5,496.3 467.2,499.3 470.7,506.2 					"/>
					<polygon points="491.5,496.3 492.6,498.4 470.7,506.2 467.2,499.3 466.2,499.4 470.2,507.4 493.9,498.9 491.6,494.3 
						492.1,496.2 					"/>
				</g>
			</g>
			<g>
				<g>
					<polygon class="st8" points="491,495.9 490.5,493.5 464.8,490.9 466.7,498.7 					"/>
					<polygon points="490.5,493.5 491,495.9 466.7,498.7 464.8,490.9 463.8,490.8 466,499.8 492.3,496.8 491,491.5 491,493.5 					
						"/>
				</g>
			</g>
			<g>
				<g>
					<polygon class="st8" points="490.1,493 490,490.4 464.4,481.8 464.5,490.2 					"/>
					<polygon points="490,490.4 490.1,493 464.5,490.2 464.4,481.8 463.3,481.4 463.4,491.1 491.1,494.2 491.1,488.6 490.6,490.6 
											"/>
				</g>
			</g>
			<g>
				<g>
					<polygon class="st8" points="489.7,489.8 490.3,487.2 466,472.4 464.2,481 					"/>
					<polygon points="490.3,487.2 489.7,489.8 464.2,481 466,472.4 465,471.8 462.8,481.7 490.6,491.3 491.8,485.6 490.9,487.5 
											"/>
				</g>
			</g>
			<g>
				<g>
					<polygon class="st8" points="490.1,486.6 491.4,484 470,463.3 466,471.5 					"/>
					<polygon points="491.4,484 490.1,486.6 466,471.5 470,463.3 469.1,462.4 464.5,471.9 490.6,488.2 493.3,482.7 491.8,484.5 
											"/>
				</g>
			</g>
			<g>
				<g>
					<polygon class="st8" points="491.3,483.3 493.2,481 476.2,455 470.2,462.4 					"/>
					<polygon points="493.2,481 491.3,483.3 470.2,462.4 476.2,455 475.5,453.9 468.5,462.5 491.5,485.1 495.5,480.2 493.6,481.6 
											"/>
				</g>
			</g>
			<g>
				<g>
					<polygon class="st8" points="493.3,480.3 495.8,478.4 484.5,448 476.6,454.1 					"/>
					<polygon points="495.8,478.4 493.3,480.3 476.6,454.1 484.5,448 484,446.7 474.9,453.8 493,482.2 498.3,478.1 496,479.1 					
						"/>
				</g>
			</g>
			<g>
				<g>
					<polygon class="st8" points="496.1,477.7 499.1,476.4 494.7,442.9 485.1,447.2 					"/>
					<polygon points="499.1,476.4 496.1,477.7 485.1,447.2 494.7,442.9 494.5,441.5 483.4,446.5 495.4,479.5 501.7,476.6 
						499.2,477.1 					"/>
				</g>
			</g>
			<g>
				<g>
					<polygon class="st8" points="499.6,475.7 502.9,475.1 506.3,440 495.5,442.2 					"/>
					<polygon points="502.9,475.1 499.6,475.7 495.5,442.2 506.3,440 506.5,438.6 493.9,441.1 498.4,477.4 505.6,475.9 502.8,475.8 
											"/>
				</g>
			</g>
			<g>
				<g>
					<polygon class="st8" points="503.6,474.5 507.2,474.6 519,439.9 507.3,439.5 					"/>
					<polygon points="507.2,474.6 503.6,474.5 507.3,439.5 519,439.9 519.5,438.4 506,438 501.9,475.9 509.7,476.2 506.9,475.4 
											"/>
				</g>
			</g>
		</g>
		<polygon class="st8" points="520.8,439.4 508.9,474.4 512.4,475.3 532.4,442.5 		"/>
		<polygon points="537.6,442.3 537.4,442.2 537.6,442.3 		"/>
		<polygon points="512,476.1 512.4,475.3 508.9,474.4 520.8,439.4 532.4,442.5 533.2,441.1 523.9,438.6 523.6,438.5 519.8,437.5 
			519.5,438.4 519,439.9 507.2,474.6 506.9,475.4 509.7,476.2 514.6,477.5 		"/>
		<polygon class="st8" points="534.3,442.3 514.2,475.5 517.6,477.3 545.2,448.3 		"/>
		<polygon points="550.5,449.3 550.3,449.2 550.5,449.4 		"/>
		<polygon points="517,477.9 517.6,477.3 514.2,475.5 534.3,442.3 545.2,448.3 546.4,447.1 537.6,442.3 537.4,442.2 533.7,440.2 
			533.2,441.1 532.4,442.5 512.4,475.3 512,476.1 514.6,477.5 519.3,480 		"/>
		<polygon class="st8" points="547.2,448.6 519.4,477.8 522.3,480.5 556.8,457.3 		"/>
		<polygon points="561.9,459.6 561.7,459.5 561.8,459.7 		"/>
		<polygon points="521.5,481 522.3,480.5 519.4,477.8 547.2,448.6 556.8,457.3 558.2,456.3 550.5,449.4 550.3,449.2 547.1,446.3 
			546.4,447.1 545.2,448.3 517.6,477.3 517,477.9 519.3,480 523.4,483.7 		"/>
		<polygon class="st8" points="558.7,458.1 524,481.5 526.3,484.9 566.3,469.3 		"/>
		<polygon points="570.9,472.9 570.8,472.7 570.8,472.9 		"/>
		<polygon points="525.4,485.3 526.3,484.9 524,481.5 558.7,458.1 566.3,469.3 568,468.7 561.8,459.7 561.7,459.5 559.1,455.7 
			558.2,456.3 556.8,457.3 522.3,480.5 521.5,481 523.4,483.7 526.6,488.4 		"/>
		<polygon class="st8" points="568,470.6 527.7,486.3 529.3,490.4 573.1,483.9 		"/>
		<polygon points="576.9,488.6 576.8,488.4 576.8,488.6 		"/>
		<polygon points="528.3,490.6 529.3,490.4 527.7,486.3 568,470.6 573.1,483.9 574.9,483.6 570.8,472.9 570.8,472.7 569,468.2 
			568,468.7 566.3,469.3 526.3,484.9 525.4,485.3 526.6,488.4 528.8,494.1 		"/>
		<polygon class="st8" points="574.5,485.6 530.4,492.1 531.1,496.8 576.6,500.4 		"/>
		<polygon points="579.2,506.1 579.2,505.9 579.2,506.2 		"/>
		<polygon points="530,496.7 531.1,496.8 530.4,492.1 574.5,485.6 576.6,500.4 578.5,500.6 576.8,488.6 576.8,488.4 576.1,483.4 
			574.9,483.6 573.1,483.9 529.3,490.4 528.3,490.6 528.8,494.1 529.7,500.4 		"/>
		<polygon class="st8" points="577.6,502.5 531.8,498.8 531.3,503.7 576.2,518.2 		"/>
		<polygon points="577.6,524.7 577.6,524.5 577.5,524.7 		"/>
		<polygon points="530.3,503.3 531.3,503.7 531.8,498.8 577.6,502.5 576.2,518.2 578.1,518.8 579.2,506.2 579.2,505.9 579.7,500.7 
			578.5,500.6 576.6,500.4 531.1,496.8 530,496.7 529.7,500.4 529.1,507 		"/>
		<polygon class="st8" points="576.7,520.5 531.6,505.9 530,510.8 571.7,536.3 		"/>
		<polygon points="571.6,543.3 571.6,543.1 571.5,543.3 		"/>
		<polygon points="529,510.2 530,510.8 531.6,505.9 576.7,520.5 571.7,536.3 573.4,537.4 577.5,524.7 577.6,524.5 579.3,519.2 
			578.1,518.8 576.2,518.2 531.3,503.7 530.3,503.3 529.1,507 526.9,513.8 		"/>
		<polygon class="st8" points="571.7,538.8 529.7,513.2 527,517.9 562.9,553.9 		"/>
		<polygon points="561.2,561 561.4,560.8 561.2,561 		"/>
		<polygon points="526.1,517 527,517.9 529.7,513.2 571.7,538.8 562.9,553.9 564.5,555.4 571.5,543.3 571.6,543.1 574.5,538.1 
			573.4,537.4 571.7,536.3 530,510.8 529,510.2 526.9,513.8 523.2,520.1 		"/>
		<polygon class="st8" points="562.4,556.4 526.2,520.2 522.3,524.3 550.1,569.8 		"/>
		<polygon points="546.7,576.7 546.9,576.5 546.7,576.7 		"/>
		<polygon points="521.7,523.2 522.3,524.3 526.2,520.2 562.4,556.4 550.1,569.8 551.3,571.8 561.2,561 561.4,560.8 565.4,556.4 
			564.5,555.4 562.9,553.9 527,517.9 526.1,517 523.2,520.1 518,525.8 		"/>
		<polygon class="st8" points="548.9,572.3 521,526.5 516.2,529.9 533.5,583.1 		"/>
		<polygon points="528.5,589.4 528.8,589.2 528.5,589.3 		"/>
		<polygon points="515.8,528.6 516.2,529.9 521,526.5 548.9,572.3 533.5,583.1 534.3,585.4 546.7,576.7 546.9,576.5 552,572.9 
			551.3,571.8 550.1,569.8 522.3,524.3 521.7,523.2 518,525.8 511.5,530.4 		"/>
		<polygon class="st8" points="531.7,585.4 514.3,531.8 508.7,534.1 513.8,592.8 		"/>
		<polygon points="507.3,598.1 507.6,597.9 507.2,598 		"/>
		<polygon points="508.6,532.7 508.7,534.1 514.3,531.8 531.7,585.4 513.8,592.8 514,595.3 528.5,589.3 528.8,589.2 534.7,586.7 
			534.3,585.4 533.5,583.1 516.2,529.9 515.8,528.6 511.5,530.4 503.8,533.5 		"/>
		<polygon class="st8" points="511.4,594.7 506.3,535.6 500.2,536.7 491.7,598.1 		"/>
		<polygon points="483.9,601.9 484.3,601.9 483.9,601.8 		"/>
		<polygon points="500.4,535.3 500.2,536.7 506.3,535.6 511.4,594.7 491.7,598.1 491.3,600.7 507.2,598 507.6,597.9 514.1,596.8 
			514,595.3 513.8,592.8 508.7,534.1 508.6,532.7 503.8,533.5 495.4,535 		"/>
		<polygon class="st8" points="488.9,599.5 497.5,537.7 491.1,537.3 468.3,598.3 		"/>
		<polygon points="459.6,600.3 460,600.4 459.6,600.2 		"/>
		<polygon points="491.6,535.9 491.1,537.3 497.5,537.7 488.9,599.5 468.3,598.3 467.4,600.8 483.9,601.8 484.3,601.9 491.1,602.3 
			491.3,600.7 491.7,598.1 500.2,536.7 500.4,535.3 495.4,535 486.7,534.4 		"/>
		<polygon class="st8" points="465.1,599.1 488.1,537.7 481.8,535.8 444.7,592.9 		"/>
		<polygon points="435.5,593 435.9,593.1 435.5,592.9 		"/>
		<polygon points="482.6,534.5 481.8,535.8 488.1,537.7 465.1,599.1 444.7,592.9 443.2,595.3 459.6,600.2 460,600.4 466.8,602.4 
			467.4,600.8 468.3,598.3 491.1,537.3 491.6,535.9 486.7,534.4 478,531.8 		"/>
		<polygon class="st8" points="441.3,593 478.7,535.4 472.8,532 422.3,581.9 		"/>
		<polygon points="413,579.7 413.4,579.9 413,579.6 		"/>
		<polygon points="473.9,530.9 472.8,532 478.7,535.4 441.3,593 422.3,581.9 420.2,583.9 435.5,592.9 435.9,593.1 442.2,596.8 
			443.2,595.3 444.7,592.9 481.8,535.8 482.6,534.5 478,531.8 470,527.1 		"/>
		<polygon class="st8" points="418.9,581.2 469.7,530.9 464.6,526 402.3,565.2 		"/>
		<polygon points="393.5,560.8 393.8,561.1 393.6,560.7 		"/>
		<polygon points="466,525.1 464.6,526 469.7,530.9 418.9,581.2 402.3,565.2 399.8,566.8 413,579.6 413.4,579.9 418.9,585.2 
			420.2,583.9 422.3,581.9 472.8,532 473.9,530.9 470,527.1 462.9,520.3 		"/>
		<polygon class="st8" points="399.1,563.7 461.8,524.2 457.8,517.9 386.1,543.4 		"/>
		<polygon points="378.3,536.8 378.5,537.1 378.4,536.7 		"/>
		<polygon points="459.4,517.4 457.8,517.9 461.8,524.2 399.1,563.7 386.1,543.4 383.2,544.4 393.6,560.7 393.8,561.1 398.1,567.9 
			399.8,566.8 402.3,565.2 464.6,526 466,525.1 462.9,520.3 457.4,511.7 		"/>
		<polygon class="st8" points="383.2,541 455.4,515.4 452.8,508 374.9,517.2 		"/>
		<polygon points="368.6,508.5 368.7,508.9 368.7,508.5 		"/>
		<polygon points="454.6,507.8 452.8,508 455.4,515.4 383.2,541 374.9,517.2 371.7,517.5 378.4,536.7 378.5,537.1 381.3,545.1 
			383.2,544.4 386.1,543.4 457.8,517.9 459.4,517.4 457.4,511.7 453.9,501.6 		"/>
		<polygon class="st8" points="372.6,514.1 450.9,504.9 450.1,496.7 369.8,487.6 		"/>
		<polygon points="365.4,477.3 365.4,477.7 365.4,477.3 		"/>
		<polygon points="452,496.9 450.1,496.7 450.9,504.9 372.6,514.1 369.8,487.6 366.4,487.2 368.7,508.5 368.7,508.9 369.6,517.8 
			371.7,517.5 374.9,517.2 452.8,508 454.6,507.8 453.9,501.6 452.7,490.4 		"/>
		<polygon class="st8" points="368.1,483.9 448.9,493.1 450,484.4 371.5,456.1 		"/>
		<polygon points="369.4,444.5 369.3,444.9 369.5,444.5 		"/>
		<polygon points="451.9,485.1 450,484.4 448.9,493.1 368.1,483.9 371.5,456.1 368.1,454.9 365.4,477.3 365.4,477.7 364.3,487 
			366.4,487.2 369.8,487.6 450.1,496.7 452,496.9 452.7,490.4 454.2,478.6 		"/>
		<polygon class="st8" points="370.6,452 449.7,480.5 452.7,471.8 380.5,424.2 		"/>
		<polygon points="381,411.8 380.9,412.2 381.1,411.8 		"/>
		<polygon points="454.5,472.9 452.7,471.8 449.7,480.5 370.6,452 380.5,424.2 377.4,422.1 369.5,444.5 369.3,444.9 366.1,454.1 
			368.1,454.9 371.5,456.1 450,484.4 451.9,485.1 454.2,478.6 458.3,466.8 		"/>
		<polygon class="st8" points="380.6,419.8 453.3,467.7 458.4,459.5 396.9,393.6 		"/>
		<polygon points="400.3,381 400,381.4 400.4,381 		"/>
		<polygon points="459.9,461.1 458.4,459.5 453.3,467.7 380.6,419.8 396.9,393.6 394.2,390.7 381.1,411.8 380.9,412.2 375.5,420.9 
			377.4,422.1 380.5,424.2 452.7,471.8 454.5,472.9 458.3,466.8 465.2,455.7 		"/>
		<polygon class="st8" points="398,389.1 460,455.4 467,448.2 420.5,366 		"/>
		<polygon points="426.8,353.9 426.4,354.4 426.9,354 		"/>
		<polygon points="468.1,450.2 467,448.2 460,455.4 398,389.1 420.5,366 418.5,362.5 400.4,381 400,381.4 392.6,389 394.2,390.7 
			396.9,393.6 458.4,459.5 459.9,461.1 465.2,455.7 474.8,445.9 		"/>
		<polygon class="st8" points="422.7,361.7 469.5,444.5 478.2,438.8 450.5,343.4 		"/>
		<polygon points="459.7,332.5 459.2,332.9 459.8,332.6 		"/>
		<polygon points="478.9,441 478.2,438.8 469.5,444.5 422.7,361.7 450.5,343.4 449.3,339.3 426.9,354 426.4,354.4 417.2,360.4 
			418.5,362.5 420.5,366 467,448.2 468.1,450.2 474.8,445.9 486.6,438.1 		"/>
		<polygon class="st8" points="453.8,339.4 481.7,435.5 491.7,431.7 486,327.3 		"/>
		<polygon points="497.8,318.3 497.1,318.6 497.8,318.5 		"/>
		<polygon points="491.8,434.1 491.7,431.7 481.7,435.5 453.8,339.4 486,327.3 485.7,322.9 459.8,332.6 459.2,332.9 448.6,336.9 
			449.3,339.3 450.5,343.4 478.2,438.8 478.9,441 486.6,438.1 500.3,433 		"/>
		<polygon class="st8" points="490.2,324 496,429.1 506.8,427.6 525.3,319.2 		"/>
		<polygon points="539.3,312.8 538.6,312.9 539.3,313 		"/>
		<polygon points="506.4,430.1 506.8,427.6 496,429.1 490.2,324 525.3,319.2 526.1,314.6 497.8,318.5 497.1,318.6 485.6,320.2 
			485.7,322.9 486,327.3 491.7,431.7 491.8,434.1 500.3,433 515.2,430.9 		"/>
		<polygon class="st8" points="530.4,316.8 511.8,426 523,427.1 566.7,320.1 		"/>
		<polygon points="582.3,317 581.5,316.9 582.3,317.2 		"/>
		<polygon points="522,429.5 523,427.1 511.8,426 530.4,316.8 566.7,320.1 568.5,315.7 539.3,313 538.6,312.9 526.6,311.8 
			526.1,314.6 525.3,319.2 506.8,427.6 506.4,430.1 515.2,430.9 530.6,432.4 		"/>
		<polygon class="st8" points="572.4,318.9 528.4,426.6 539.4,430.3 608.1,330.9 		"/>
		<polygon points="624.5,331.4 623.7,331.2 624.4,331.6 		"/>
		<polygon points="537.8,432.5 539.4,430.3 528.4,426.6 572.4,318.9 608.1,330.9 610.9,326.8 582.3,317.2 581.5,316.9 569.7,312.9 
			568.5,315.7 566.7,320.1 523,427.1 522,429.5 530.6,432.4 545.8,437.5 		"/>
		<polygon class="st8" points="614.1,331 544.9,431 555.1,437.5 647.2,351.8 		"/>
		<polygon points="663.5,356.2 662.9,355.8 663.4,356.4 		"/>
		<polygon points="553,439.4 555.1,437.5 544.9,431 614.1,331 647.2,351.8 651,348.3 624.4,331.6 623.7,331.2 612.7,324.2 
			610.9,326.8 608.1,330.9 539.4,430.3 537.8,432.5 545.8,437.5 559.8,446.4 		"/>
		<polygon class="st8" points="653.2,353.3 560.5,439.5 569.2,448.5 681.6,382.5 		"/>
		<polygon points="697,390.9 696.4,390.4 696.8,391 		"/>
		<polygon points="566.7,450 569.2,448.5 560.5,439.5 653.2,353.3 681.6,382.5 686.2,379.8 663.4,356.4 662.9,355.8 653.4,346.1 
			651,348.3 647.2,351.8 555.1,437.5 553,439.4 559.8,446.4 571.9,458.7 		"/>
		<polygon class="st8" points="687.3,385.5 574.1,451.9 580.8,463.3 709,422.2 		"/>
		<polygon points="722.5,434.4 722.2,433.7 722.4,434.5 		"/>
		<polygon points="577.9,464.2 580.8,463.3 574.1,451.9 687.3,385.5 709,422.2 714.3,420.5 696.8,391 696.4,390.4 689.2,378.1 
			686.2,379.8 681.6,382.5 569.2,448.5 566.7,450 571.9,458.7 581.1,474.3 		"/>
		<polygon class="st8" points="714,426.5 585,467.8 589.1,481.1 727.4,469.3 		"/>
		<polygon points="738.1,485 737.9,484.3 738,485 		"/>
		<polygon points="585.9,481.4 589.1,481.1 585,467.8 714,426.5 727.4,469.3 733.1,468.9 722.4,434.5 722.2,433.7 717.7,419.4 
			714.3,420.5 709,422.2 580.8,463.3 577.9,464.2 581.1,474.3 586.8,492.5 		"/>
		<polygon class="st8" points="731.3,474.9 592.2,486.8 593.3,501.4 734.8,522.1 		"/>
		<polygon points="742.1,540.6 742,539.9 741.9,540.6 		"/>
		<polygon points="590,500.9 593.3,501.4 592.2,486.8 731.3,474.9 734.8,522.1 740.8,522.9 738,485 737.9,484.3 736.8,468.5 
			733.1,468.9 727.4,469.3 589.1,481.1 585.9,481.4 586.8,492.5 588.2,512.5 		"/>
		<polygon class="st8" points="737.6,528.6 595.1,507.9 592.8,523.2 730.1,577.9 		"/>
		<polygon points="733.2,598.6 733.3,597.8 733,598.5 		"/>
		<polygon points="589.5,521.9 592.8,523.2 595.1,507.9 737.6,528.6 730.1,577.9 736,580.2 741.9,540.6 742,539.9 744.5,523.5 
			740.8,522.9 734.8,522.1 593.3,501.4 590,500.9 588.2,512.5 585.1,533.3 		"/>
		<polygon class="st8" points="731.3,585.2 593.1,530.2 587.2,545.5 712.4,634 		"/>
		<polygon points="710.8,655.9 711.1,655.2 710.6,655.9 		"/>
		<polygon points="584.2,543.3 587.2,545.5 593.1,530.2 731.3,585.2 712.4,634 717.8,637.8 733,598.5 733.3,597.8 739.6,581.6 
			736,580.2 730.1,577.9 592.8,523.2 589.5,521.9 585.1,533.3 577.1,554 		"/>
		<polygon class="st8" points="712,641.8 585.9,552.7 576.5,566.9 681.7,687.4 		"/>
		<polygon points="675,709.5 675.4,708.7 674.8,709.4 		"/>
		<polygon points="573.9,564 576.5,566.9 585.9,552.7 712,641.8 681.7,687.4 686.2,692.6 710.6,655.9 711.1,655.2 721.1,640.1 
			717.8,637.8 712.4,634 587.2,545.5 584.2,543.3 577.1,554 564.2,573.3 		"/>
		<polygon class="st8" points="679.4,695.3 573.5,574 560.7,586.4 638.4,734.8 		"/>
		<polygon points="626.5,755.9 627.3,755.2 626.4,755.8 		"/>
		<polygon points="558.8,582.8 560.7,586.4 573.5,574 679.4,695.3 638.4,734.8 641.8,741.2 674.8,709.4 675.4,708.7 689,695.7 
			686.2,692.6 681.7,687.4 576.5,566.9 573.9,564 564.2,573.3 546.8,590.1 		"/>
		<polygon class="st8" points="634.3,742.5 556,593 540.3,602.6 584,773.3 		"/>
		<polygon points="567.1,792.1 568.1,791.5 567,791.9 		"/>
		<polygon points="539.3,598.5 540.3,602.6 556,593 634.3,742.5 584,773.3 585.9,780.6 626.4,755.8 627.3,755.2 643.8,745.1 
			641.8,741.2 638.4,734.8 560.7,586.4 558.8,582.8 546.8,590.1 525.5,603.2 		"/>
		<polygon class="st8" points="578,780.2 534,608.2 516.1,614.3 520.4,799.8 		"/>
		<polygon points="516,610 516.1,614.3 534,608.2 578,780.2 520.4,799.8 520.6,807.7 567,791.9 568.1,791.5 587,785 585.9,780.6 
			584,773.3 540.3,602.6 539.3,598.5 525.5,603.2 501,611.6 		"/>
		<path class="st8" d="M512.8,805.5l-4.3-186.9l-19.3,2l-37.4,184.9c9.1,1.6,18.3,2.7,27.6,3.5L512.8,805.5z"/>
		<path d="M520.4,799.8l-4.3-185.5L516,610l-15,1.6l-26.5,2.8l15.5,1.9l-0.9,4.4l19.3-2l4.3,186.9l-33.4,3.5c8.1,0.7,16.4,1,24.7,1
			c5.6,0,11.1-0.2,16.7-0.5l0-1.8L520.4,799.8z"/>
		<path class="st8" d="M480.3,623.3l-19.8-2.5l-73.8,165.9c18.2,7.6,37.3,13.4,57,17.4L480.3,623.3z"/>
		<path d="M489.1,620.7l0.9-4.4l-15.5-1.9l-27.2-3.4l15.1,5.7l-1.9,4.2l19.8,2.5L443.7,804c2.7,0.5,5.3,1,8,1.5L489.1,620.7z"/>
		<path class="st8" d="M451,621.4l-19.2-7.2L328.2,754.5c15.9,11.2,32.8,20.8,50.7,28.9L451,621.4z"/>
		<path d="M460.5,620.8l1.9-4.2l-15.1-5.7l-26.5-10l13.8,9.4l-2.8,3.8l19.2,7.2l-72.1,162c2.6,1.2,5.2,2.3,7.8,3.4L460.5,620.8z"/>
		<path class="st8" d="M422,612.5l-17.6-12L278.4,710.7c13,14.2,27.3,27.1,42.7,38.6L422,612.5z"/>
		<path d="M431.7,614.1l2.8-3.8l-13.8-9.4l-24.3-16.5l11.6,12.8l-3.7,3.2l17.6,12L321,749.3c2.4,1.8,4.8,3.5,7.2,5.2L431.7,614.1z"
			/>
		<path class="st8" d="M394.9,596.5l-15-16.5L239,657.1c9.6,16.6,20.8,32.2,33.2,46.7L394.9,596.5z"/>
		<path d="M404.3,600.5l3.7-3.2l-11.6-12.8l-20.6-22.7l8.7,15.8l-4.5,2.5l15,16.5L272.2,703.8c2,2.3,4.1,4.6,6.1,6.9L404.3,600.5z"
			/>
		<path class="st8" d="M371.4,573.8l-11.3-20.5L212,595.7c5.8,18.5,13.3,36.2,22.3,53L371.4,573.8z"/>
		<path d="M379.9,580.1l4.5-2.5l-8.7-15.8l-15.5-28.1l5,18.1l-5.2,1.5l11.3,20.5l-137.1,75c1.5,2.8,3.1,5.6,4.7,8.4L379.9,580.1z"/>
		<path class="st8" d="M353.1,544.9l-6.6-23.8L199,529c1.6,19.6,5,38.8,10.1,57.2L353.1,544.9z"/>
		<path d="M360.1,553.3l5.2-1.5l-5-18.1l-9-32.5l0.8,19.7l-5.7,0.3l6.6,23.8l-143.9,41.2c0.9,3.2,1.8,6.4,2.8,9.6L360.1,553.3z"/>
		<path class="st8" d="M341.3,511l-1.1-26.1l-139-24.9c-2.1,14.4-3.2,29.1-3.2,44c0,4.9,0.1,9.8,0.4,14.6L341.3,511z"/>
		<path d="M346.5,521.1l5.7-0.3l-0.8-19.7l-1.5-35.5l-3.7,20.3l-5.9-1.1l1.1,26.1l-142.9,7.6c0.2,3.5,0.4,6.9,0.7,10.4L346.5,521.1z
			"/>
		<path class="st8" d="M337.4,473.4l5-27.1L219,392.4c-7.1,18.2-12.6,37.2-16.1,56.9L337.4,473.4z"/>
		<path d="M340.2,484.9l5.9,1.1l3.7-20.3l6.7-36.9l-8.5,20l-5.8-2.5l-5,27.1l-134.5-24.1c-0.6,3.5-1.2,7.1-1.7,10.7L340.2,484.9z"/>
		<path class="st8" d="M342.1,433.8l11.3-26.7l-101.3-76.8c-11.2,16.2-20.8,33.4-28.7,51.7L342.1,433.8z"/>
		<path d="M342.3,446.2l5.8,2.5l8.5-20l15.3-36.2l-13.2,18.6l-5.3-4l-11.3,26.7L223.3,382c-1.5,3.4-3,6.9-4.3,10.4L342.3,446.2z"/>
		<path class="st8" d="M356.1,394.4l17.6-24.7l-75.3-92.2c-14.5,13.1-27.6,27.6-39.4,43.3L356.1,394.4z"/>
		<path d="M353.4,407.1l5.3,4l13.2-18.6l23.8-33.6L378,375l-4.4-5.3l-17.6,24.7l-97.2-73.6c-2.4,3.1-4.6,6.3-6.9,9.6L353.4,407.1z"
			/>
		<path class="st8" d="M379.3,357.2l23.3-21.2l-47.9-99.2c-16.8,9.4-32.5,20.3-47.2,32.6L379.3,357.2z"/>
		<path d="M373.7,369.6l4.4,5.3l17.6-16l31.7-28.8l-21.6,12.3l-3.1-6.5l-23.3,21.2l-71.8-87.8c-3.1,2.6-6.2,5.3-9.3,8.1L373.7,369.6
			z"/>
		<path class="st8" d="M411.3,324.6l28.2-16.1l-21.8-98.2c-18,5.3-35.3,12.2-51.7,20.5L411.3,324.6z"/>
		<path d="M402.7,336.1l3.1,6.5l21.6-12.3l38.5-22l-24.7,7.6l-1.6-7.3l-28.2,16.1L366,230.8c-3.8,1.9-7.6,3.9-11.3,6L402.7,336.1z"
			/>
		<path class="st8" d="M451,298.8l32-9.8l0.7-90.3c-18.2,1.2-35.9,4-53.1,8.2L451,298.8z"/>
		<path d="M439.6,308.5l1.6,7.3l24.7-7.6l43.8-13.4l-26.7,1.9l0.1-7.7l-32,9.8l-20.4-91.9c-4.3,1.1-8.6,2.2-12.9,3.5L439.6,308.5z"
			/>
		<path class="st8" d="M496.9,281.8l34.2-2.5l18.3-77.9c-14.8-2.2-30-3.4-45.4-3.4c-2.1,0-4.3,0-6.4,0.1L496.9,281.8z"/>
		<path d="M483,289l-0.1,7.7l26.7-1.9l47-3.4l-27.3-4.3l1.8-7.7l-34.2,2.5l0.7-83.7c-4.6,0.1-9.3,0.3-13.9,0.6L483,289z"/>
		<path class="st8" d="M546.9,275.2l34.8,5.5l30.4-63c-15.6-5.9-31.8-10.5-48.5-13.8L546.9,275.2z"/>
		<path d="M531.1,279.3l-1.8,7.7l27.3,4.3l48,7.6L578.2,288l3.5-7.3l-34.8-5.5l16.7-71.3c-4.7-0.9-9.5-1.8-14.2-2.5L531.1,279.3z"/>
		<path class="st8" d="M598.7,280.2l33.6,13.9l37.3-47.5c-13.8-8.9-28.3-16.7-43.5-23.3L598.7,280.2z"/>
		<path d="M581.8,280.7l-3.5,7.3l26.4,10.9l46.4,19.2l-23.9-17.4l5.2-6.6l-33.6-13.9l27.4-56.9c-4.6-2-9.2-3.9-14-5.7L581.8,280.7z"
			/>
		<path class="st8" d="M649.5,297.6l30.6,22.2l39.8-32.7c-11.5-11.5-24-22.1-37.3-31.6L649.5,297.6z"/>
		<path d="M632.3,294.1l-5.2,6.6l23.9,17.4l42.1,30.6l-19.9-23.3l6.8-5.6l-30.6-22.2l33.1-42.1c-4.2-3.1-8.6-6-13-8.8L632.3,294.1z"
			/>
		<path class="st8" d="M696.5,327.4l25.6,30.1l38.9-19.7C752,324,742,311,731.1,298.9L696.5,327.4z"/>
		<path d="M680,319.8l-6.8,5.6l19.9,23.3l35.2,41.4l-14.4-28.4l8.1-4.1l-25.6-30.1l34.6-28.5c-3.7-4-7.4-8-11.3-11.8L680,319.8z"/>
		<path class="st8" d="M736.8,369.1l73.1,144c0.1-3,0.1-6,0.1-9.1c0-55.2-14.6-107-40.2-151.7L736.8,369.1z"/>
		<path d="M722,357.5l-8.1,4.1l14.4,28.4l78.8,155.2l0.1-0.1c1.4-10.5,2.3-21.3,2.6-32.1l-73.1-144l33.1-16.8
			c-2.8-4.9-5.8-9.8-8.9-14.6L722,357.5z"/>
	</g>
	<g>
		<path class="st9" d="M504,198c-11,0-21.9,0.6-32.6,1.7c-30.1,8.5-58.5,21.9-84.3,39.8c-25.8,18-48.4,39.9-66.9,65.2
			c-18.9,25.8-33.2,54.4-42.5,85.1c-10.5,34.7-14,68.5-10.2,100.6c3.7,31.1,14.4,61.7,31.1,88.4c15.8,25.4,37.3,47.8,62.1,64.6
			c26.4,17.9,56.7,29.9,87.7,34.6c33,5,65.8,0.9,94.7-11.9c26.8-11.9,50.1-30.9,67.2-54.9c18.5-25.9,29.2-56.9,30.1-87.1
			c0.9-29.9-8.8-59.1-27.2-82.3c-18.1-22.7-43.5-38.6-71.6-44.6c-29.7-6.3-59.6,0.2-82.2,18c-22.4,17.6-36.2,45.4-36,72.6
			c0.2,26,14.2,50.1,36.5,62.8c24.3,13.8,53.7,11.4,71.5-5.9c10.5-10.2,16.7-24.7,16.6-38.7c-0.1-11.6-4.4-21.8-12.6-29.5
			c-10.3-9.6-24.5-13.5-36.2-9.9c-0.3,0.1-0.6,0.2-0.9,0.3c-0.2,4.2-0.2,8.4,0,12.5c1-0.2,2-0.1,3.2,0.1c2.7,0.5,4.5,2,5.8,4
			c1.7,0.2,3.5,0.6,5.1,1.2c7,2.6,9.2,7.6,9.1,13.3c2,0.4,3.6,1.8,3.3,4.6c-0.1,0.4-0.1,0.9-0.2,1.3c0,0,0,0,0,0c0,0,0,0.1-0.1,0.1
			c-1.8,10.3-9.8,20.4-19.4,24.4c-2,0.8-3.6,0.3-4.6-0.9c-1.1,0.5-2.4,0.7-3.5,0.4c-2.1-0.5-4.1-0.7-6.2-0.8
			c-2.3-0.1-4.2-1.7-4.8-3.7c-0.4,0.1-0.8,0.1-1.2,0.2c-2.4,0.2-4.1-1.5-4.7-3.5c-2.2,0.6-4.1-0.7-5.1-2.6c-2.3-1.1-3.7-4.5-2.6-7.1
			c-4,0.6-8.1-3.8-5.7-7.2c-1.2-1.3-1.8-3.2-1.3-4.9c1-2.7,2.4-5.1,4.4-6.7c-0.8-1.1-1.3-2.5-0.9-4.2c-3.2-2.5-3.2-7.5-1-11.3
			c1.2-2.1,4.2-3.1,6.4-2.1c0-0.6,0-1.2-0.1-1.9c-0.2-2.4,1.6-4.1,3.8-4.7c0.2-0.7,0.2-1.4,0.2-2.3c0.1-2.7,1.9-4.3,4-4.7
			c1.4-1.9,4.4-2.1,6.5-1c0.2-1.8,0.3-3.5,0.5-5.2c0.7-6.3,10.7-6.4,10,0c-0.3,2.5-0.5,5-0.7,7.5c13.3-3.7,28.9,0.6,40.2,11.2
			c9.1,8.6,14,20,14.2,33.1c0.1,15.4-6.6,31.2-18.1,42.4c-19.4,18.9-51.3,21.6-77.5,6.7c-23.8-13.6-38.8-39.3-39-67.1
			c-0.2-29.1,13.9-57.7,37.9-76.6c23.8-18.7,55.2-25.6,86.3-18.9c29.2,6.2,55.7,22.7,74.4,46.3c19.2,24.1,29.2,54.5,28.3,85.6
			c-0.9,31.3-12,63.2-31.1,89.9c-17.7,24.8-41.6,44.3-69.3,56.6c-21.6,9.6-45.2,14.5-69.5,14.5c-9.3,0-18.6-0.7-28-2.1
			c-31.7-4.8-62.7-17.1-89.7-35.4c-25.4-17.2-47.4-40.1-63.6-66.1c-17-27.4-28-58.6-31.8-90.5c-3.9-32.7-0.4-67.2,10.4-102.6
			c9.5-31.3,24.1-60.4,43.3-86.6c18.9-25.7,41.8-48,68.1-66.3c18.3-12.7,37.9-23.2,58.4-31.3C303.1,232.6,198,356,198,504
			c0,169,137,306,306,306s306-137,306-306S673,198,504,198z"/>
		<path class="st9" d="M511.8,496.3c-0.2-0.7-0.6-1.2-1.1-1.6c0.2,1.5,0.3,3,0.5,4.3c0.1,1.1,0.3,2.1,0.5,3.1
			C512.3,500,512.4,497.9,511.8,496.3z"/>
		<path class="st9" d="M488.7,482.7c0-0.2,0-0.4,0-0.7c-1.4,1.9-3.9,2.6-5.9,2.1c-0.7,0.8-1.5,1.5-2.4,2.2c1,2.2,1.4,4.6,1.4,7
			c1,0.5,1.8,1.4,2.1,2.5c1.8,0.7,2.9,2.8,3.2,4.7c0.2,1.9,0.1,3.7-0.3,5.3c0.5,0.6,0.9,1.4,1.1,2.2c2.2,0.2,3.8,1.6,4.5,3.4
			c0.2-0.1,0.4-0.1,0.7-0.2c-0.2-2.9-0.5-5.8-0.9-8.8c-0.4-2.7-0.7-5.4-0.8-8.1c-0.1-1.4,0-3,0.2-4.6
			C489.8,488,488.9,485.6,488.7,482.7z"/>
		<path class="st10" d="M617.2,438.6c-18.8-23.6-45.2-40.1-74.4-46.3c-31.1-6.6-62.6,0.3-86.3,18.9c-24,18.8-38.1,47.5-37.9,76.6
			c0.2,27.8,15.2,53.5,39,67.1c26.2,14.9,58.1,12.2,77.5-6.7c11.4-11.1,18.2-27,18.1-42.4c-0.1-13-5-24.5-14.2-33.1
			c-11.3-10.6-26.9-14.9-40.2-11.2c-0.1,1.8-0.3,3.6-0.3,5.3c0.3-0.1,0.6-0.2,0.9-0.3c11.8-3.7,26,0.2,36.2,9.9
			c8.1,7.6,12.5,17.8,12.6,29.5c0.1,14.1-6.1,28.5-16.6,38.7c-17.8,17.3-47.2,19.8-71.5,5.9c-22.3-12.7-36.3-36.8-36.5-62.8
			c-0.2-27.2,13.6-55,36-72.6c22.6-17.8,52.6-24.3,82.2-18c28.1,6,53.5,21.8,71.6,44.6c18.4,23.2,28.1,52.4,27.2,82.3
			c-0.9,30.3-11.6,61.2-30.1,87.1c-17.2,24-40.4,43-67.2,54.9c-29,12.8-61.7,17-94.7,11.9c-31-4.7-61.3-16.7-87.7-34.6
			c-24.8-16.8-46.3-39.2-62.1-64.6c-16.7-26.7-27.4-57.3-31.1-88.4c-3.8-32-0.4-65.9,10.2-100.6c9.3-30.7,23.6-59.4,42.5-85.1
			c18.5-25.3,41.1-47.2,66.9-65.2c25.8-17.9,54.2-31.3,84.3-39.8c-9.7,1-19.3,2.5-28.7,4.4c-20.5,8.1-40.1,18.6-58.4,31.3
			C358,253.7,335,276,316.2,301.8c-19.2,26.2-33.8,55.4-43.3,86.6c-10.7,35.3-14.2,69.9-10.4,102.6c3.8,31.8,14.8,63.1,31.8,90.5
			c16.2,26,38.2,48.9,63.6,66.1c27,18.3,58,30.6,89.7,35.4c9.4,1.4,18.7,2.1,28,2.1c24.3,0,47.9-4.9,69.5-14.5
			c27.6-12.2,51.6-31.8,69.3-56.6c19.1-26.7,30.1-58.7,31.1-89.9C646.4,493.1,636.4,462.7,617.2,438.6z"/>
	</g>
</g>
<g id="shadow" class="st0">
	<defs>
		<polygon id="SVGID_1_" points="108,603 216,648 792,648 900,603 		"/>
	</defs>
	<clipPath id="SVGID_2_" class="st6">
		<use xlink:href="#SVGID_1_"  style="overflow:visible;"/>
	</clipPath>
	<rect x="108" y="603" class="st11" width="792" height="9"/>
</g>
<g id="Circle">
</g>
<g id="studio" class="st0">
	<path class="st1" d="M504,630c-69.6,0-126-56.4-126-126h-63c0,104.4,84.6,189,189,189s189-84.6,189-189h-63
		C630,573.6,573.6,630,504,630z"/>
	<path id="SVGID_x5F_3_x5F_" class="st9" d="M682.3,504c0-98.5-79.8-178.3-178.3-178.3c-98.5,0-178.3,79.8-178.3,178.3
		c0,98.5,79.8,178.3,178.3,178.3C602.5,682.3,682.3,602.5,682.3,504z"/>
	<text class="st6">	<textPath  xlink:href="#SVGID_x5F_3_x5F_" startOffset="-233.1747%">
<tspan  style="stroke:#000000;stroke-miterlimit:10; font-family:'AveFedanPERSONALUSEONLY'; font-size:59.4443px;">Studio</tspan>	</textPath>
</text>
</g>
<g id="stars" class="st0">
	<path class="st1" d="M504,315c-104.4,0-189,84.6-189,189h63c0-69.6,56.4-126,126-126s126,56.4,126,126h63
		C693,399.6,608.4,315,504,315z"/>
	<g class="st6">
		<polygon points="398.4,366.7 410.1,373.9 420.6,365 417.3,378.4 429,385.6 415.3,386.6 412.1,399.9 406.9,387.3 393.2,388.3 
			403.7,379.4 		"/>
		<polygon points="448.6,339.5 457.1,350.3 470,345.4 462.4,356.9 471,367.6 457.7,364 450.2,375.4 449.6,361.7 436.4,358 
			449.2,353.2 		"/>
		<polygon points="504,324 509.1,339.8 525.8,339.8 512.3,349.6 517.5,365.5 504,355.7 490.5,365.5 495.7,349.6 482.2,339.8 
			498.9,339.8 		"/>
		<polygon points="559.4,339.5 558.8,353.2 571.6,358 558.4,361.7 557.8,375.4 550.3,364 537,367.6 545.6,356.9 538,345.4 
			550.9,350.3 		"/>
		<polygon points="609.6,366.7 604.3,379.4 614.8,388.3 601.1,387.3 595.9,399.9 592.7,386.6 579,385.6 590.7,378.4 587.4,365 
			597.9,373.9 		"/>
	</g>
</g>
<g id="text_out" class="st0">
	<path id="SVGID_x5F_4_x5F_" class="st9" d="M164.5,539c0,188.9,152,342,339.5,342c187.5,0,339.5-153.1,339.5-342"/>
	<text class="st6">	<textPath  xlink:href="#SVGID_x5F_4_x5F_" startOffset="29.19%">
<tspan  style="font-family:'AveFedanPERSONALUSEONLY'; font-size:50px;">&amp; Mastering</tspan>	</textPath>
</text>
	<path id="SVGID_x5F_5_x5F_" class="st9" d="M162,504c0-188.9,153.1-342,342-342c188.9,0,342,153.1,342,342"/>
	<text class="st6">	<textPath  xlink:href="#SVGID_x5F_5_x5F_" startOffset="22.2715%">
<tspan  style="font-family:'AveFedanPERSONALUSEONLY'; font-size:50px;">Hardcore Mixing</tspan>	</textPath>
</text>
</g>
<g id="stairs_2">
	<g>
		<circle class="st8" cx="500" cy="504.5" r="360.3"/>
		<path class="st12" d="M485.9,803.2C394,762.7,352.4,687.4,349.3,677.6c-3.1-9.8-9-23.2-5.9-47.1c3.1-23.9,18.8-43,18.8-43
			S385.8,545.7,513,487c127.2-58.7,135-120.8,135-120.8s-0.8-23.7-16-47.7c-15.2-23.9-93.9-71.8-145.1-92.2
			c-30.2-12-69.9-42.1-97.4-64.7c-144.9,46.7-249.8,182.6-249.8,343c0,199,161.3,360.3,360.3,360.3c29.8,0,58.8-3.6,86.5-10.5
			C566.9,840.5,537.9,826,485.9,803.2z"/>
		<circle class="st13" cx="500" cy="504.5" r="360.3"/>
		<g>
			<g>
				<rect x="448.2" y="699.4" width="50.3" height="16.9"/>
			</g>
			<g>
				<rect x="495" y="667.6" width="50.3" height="16.9"/>
			</g>
			<g>
				<rect x="492.3" y="635.7" width="95.5" height="16.9"/>
			</g>
			<g>
				<rect x="491.2" y="603.8" width="126" height="16.9"/>
			</g>
			<g>
				<rect x="393.8" y="731.3" width="107.3" height="16.9"/>
			</g>
			<g>
				<rect x="440.6" y="763.1" width="59.2" height="16.9"/>
			</g>
			<g>
				<rect x="498.7" y="508.3" width="135.8" height="16.9"/>
			</g>
			<g>
				<rect x="503.5" y="540.1" width="145.3" height="16.9"/>
			</g>
			<g>
				<rect x="490.5" y="572" width="144.2" height="16.9"/>
			</g>
			<g>
				<rect x="374.3" y="317.1" width="115.4" height="16.9"/>
			</g>
			<g>
				<rect x="406.2" y="349" width="88.9" height="16.9"/>
			</g>
			<g>
				<rect x="449" y="380.8" width="50.3" height="16.9"/>
			</g>
			<g>
				<rect x="495.2" y="412.7" width="50.3" height="16.9"/>
			</g>
			<g>
				<rect x="505.7" y="444.6" width="72.6" height="16.9"/>
			</g>
			<g>
				<path d="M509.5,230H483v264.8c8.6-2.7,17.7-4.8,26.5-7V230z"/>
			</g>
			<g>
				<path d="M483,494.8v308.4h26.5V487.7C500.7,490,491.6,492,483,494.8z"/>
			</g>
			<g>
				<rect x="505.4" y="476.4" width="112.3" height="16.9"/>
			</g>
			<g>
				<path d="M648.5,960.1c-6.9-33.5-40-67.6-66.3-86.7c-2.6-1.9-5.4-3.5-8.1-5.1c-0.8-0.5-1.6-0.9-2.5-1.4
					c-6.7-3.9-13.9-7.9-21.9-12.1c-12.3-6.5-25-12.7-37.3-18.7c-32.8-16.1-66.8-32.7-96.3-55.9c-28-22-63.3-58.8-72.4-109.2
					c-7.4-40.9,5.7-83.5,36.9-119.9c36.6-42.8,85.5-66.2,132.9-88.7c31.2-14.9,63.4-30.2,92-51.1c11.9-8.7,34.1-24.8,39.2-43.3
					c3.8-13.9-4.4-30.1-24.5-48.3c-30.1-27.3-67.7-45.5-104.1-63.1c-5.3-2.6-10.6-5.1-15.8-7.7c-17-8.3-39.1-19.6-59.9-33
					c-21.1-13.6-38.4-27.8-53-43.4c-7.1-7.6-13.8-15.9-19.7-24.5c-3.3-4.8-6.2-9.5-8.7-14.1c-13.4-22.2-18.2-49.3-14-78.1l1.7-11.6
					l2.7,14.1c4.7,24.6,10,52.4,28.8,70.1l0.1,0.1c4.1,4.3,8.3,8.4,12.8,12.7c1.2,1.1,2.3,2.2,3.5,3.4c3.5,3.1,7.2,6.2,11.5,9.6
					c4.4,3,9.1,5.9,13.8,9c22.1,14,46.7,25.9,70.5,37.3c49.9,24,101.5,48.9,135,95.7c9.3,13,21.2,33.6,24.9,57.6
					c3.3,21.6-5.5,45.7-26.2,71.8c-35.7,45.1-89.5,70.9-126.9,86.5c-49,20.4-103.5,47.6-135.6,94.6c-31.4,46-0.7,94.5,38.5,124.6
					c26.4,20.2,57,35,86.6,49.3c18.8,9.1,38.2,18.5,56.5,29.2c18.8,11.1,34.5,21.9,47.9,33.1c3.9,3.2,7.5,6.5,10.9,9.7l0.1,0.1
					c3.2,3.5,6.7,7,10.5,10.8c6,6.1,12.2,12.4,17.3,18.5c15.3,18.2,28.3,54.9,22.5,78.4l-2.1,8.6L648.5,960.1z"/>
				<path d="M347,56c5,26,10,55,29.8,73.8c5.2,5.5,10.8,10.7,16.4,16.1c3.8,3.4,7.7,6.6,11.7,9.8c4.4,3,9,5.9,14,9.1
					c68.1,43.3,155.7,63.7,204.9,132.4c11.9,16.6,21.4,36.4,24.5,56.7c3.9,25.6-10.4,50.9-25.8,70.3
					c-32.1,40.5-79.2,66.4-126.1,85.9c-50.6,21.1-104.6,48.7-136.5,95.3c-32.2,47.2-0.7,96.9,39,127.3
					c43.4,33.2,96.4,51.1,143.3,78.6c16.6,9.7,32.8,20.5,47.6,32.9c3.7,3.1,7.3,6.3,10.8,9.6c8.5,9.2,19.6,19.5,27.7,29.2
					c15,17.9,27.6,54,22.1,76.7c-7.4-35.7-42.8-70.3-67-87.9c-3.4-2.5-7.1-4.5-10.8-6.6c-7.3-4.2-14.6-8.3-22-12.2
					c-45.1-23.8-92.9-42.7-133.3-74.5c-34.7-27.2-63.6-63.7-71.6-108c-7.9-43.8,8.1-85.1,36.4-118.3
					c60.3-70.6,152.1-86.8,224.5-139.5c14.4-10.5,34.9-26.1,39.9-44.4c5.3-19.2-12.1-38.5-25.1-50.3
					c-34.7-31.4-78.9-50.7-120.4-71.1c-40.8-20.1-80.9-42.4-112.3-76c-6.7-7.1-13.4-15.3-19.5-24.2c-3.1-4.5-6-9.1-8.6-13.9
					C347,110,343,83,347,56 M346.5,32.2L343,55.4c-4.3,29.2,0.6,56.7,14.2,79.4c2.5,4.6,5.5,9.4,8.8,14.2c6,8.7,12.7,17,19.9,24.7
					c32,34.2,73.4,57.2,113.5,76.8c5.2,2.6,10.6,5.2,15.8,7.7c36.3,17.6,73.8,35.7,103.6,62.8c19.5,17.6,27.5,33.2,23.9,46.3
					c-4.9,17.9-26.7,33.7-38.4,42.3c-28.5,20.7-60.6,36-91.7,50.9c-47.5,22.7-96.7,46.1-133.5,89.2c-15.1,17.7-26.1,36.7-32.6,56.5
					c-7.1,21.5-8.7,43.4-4.8,65.1c9.2,51,44.9,88.2,73.1,110.4c29.7,23.3,63.7,40,96.7,56.2c12.3,6,25,12.2,37.2,18.7
					c8,4.2,15.2,8.2,21.9,12.1c0.8,0.5,1.7,1,2.5,1.4c2.8,1.6,5.5,3.1,8,4.9c25.9,18.9,58.6,52.6,65.5,85.5l3.6,17.3l4.2-17.2
					c5.9-24.1-7.4-61.6-22.9-80.2c-5.2-6.1-11.4-12.5-17.5-18.6c-3.7-3.8-7.2-7.3-10.4-10.8l-0.1-0.1l-0.1-0.1
					c-3.4-3.2-7.1-6.5-11-9.8c-13.5-11.3-29.2-22.2-48.1-33.3c-18.3-10.8-37.8-20.2-56.6-29.3c-29.5-14.3-60-29-86.3-49.1
					c-38.5-29.5-68.7-77-38.1-121.8c14.3-20.9,33.9-39.3,60-56.1c26.1-16.9,55.1-29.6,74.7-37.7c27.2-11.3,49.9-22.9,69.3-35.4
					c24.1-15.5,43.2-32.5,58.5-51.7c21-26.6,30-51.2,26.6-73.4c-3.7-24.4-15.8-45.2-25.2-58.4c-33.8-47.2-85.6-72.1-135.8-96.3
					c-23.7-11.4-48.3-23.3-70.3-37.2c-4.8-3-9.4-6-13.7-8.9c-4.2-3.3-7.9-6.4-11.3-9.5c-1.2-1.1-2.3-2.2-3.5-3.3
					c-4.5-4.3-8.7-8.3-12.8-12.6l-0.1-0.1l-0.1-0.1c-18.3-17.3-23.3-43.6-28.2-69l-0.5-2.6L346.5,32.2L346.5,32.2z"/>
			</g>
		</g>
	</g>
</g>
<g id="label" class="st0">
	<g class="st6">
		<rect x="108" y="576.4" class="st14" width="799.9" height="197"/>
		<g>
			<path d="M140.4,754.2v-28.5h15.9v-97.4h-15.9v-28.5h50.5v28.5H175v97.4h15.9v28.5H140.4z"/>
			<path d="M234,688.7c1.7-11.6,3.3-22.7,4.8-33.3c1.6-10.6,2.9-19.7,3.9-27.1h-4v-28.5H268v28.5h-6.1l-18.3,125.9h-19l-18.4-125.9
				h-6.1v-28.5h29.2v28.5h-4c1.2,7.9,2.5,16.9,3.9,26.8C230.6,665.1,232.2,676.3,234,688.7z"/>
			<path d="M335.5,738l-12,16.1h-34.6L277,738V616l11.9-16.2h34.6l12,16.2V738z M316.8,725.7v-97.4h-21.2v97.4H316.8z"/>
			<path d="M409.7,754.2h-19.9L374,691.3h-5.5v34.4h5.3v28.5h-29.3v-28.5h5.3v-97.4h-5.3v-28.5h50l11.9,16.2v56.7l-12.7,18.2
				l8.8,34.8h7.2V754.2z M368.4,662.7h19.3v-34.4h-19.3V662.7z"/>
			<path d="M460.4,697.3v28.4h5.2v28.5h-29.3v-28.5h5.3v-28.6l-20.4-68.8h-7.1v-28.5h29.3v28.5H440l11,29l10.1-29H458v-28.5h28.5
				v28.5h-6L460.4,697.3z"/>
			<path d="M543.3,628.3h-5.2v97.4h5.3v28.5h-29.3v-28.5h5.3v-97.4h-5.2v12.5h-18.6v-41h66.2v41h-18.6V628.3z"/>
			<path d="M629.3,738l-12,16.1h-34.6L570.8,738V616l11.9-16.2h34.6l12,16.2V738z M610.7,725.7v-97.4h-21.2v97.4H610.7z"/>
			<path d="M733.5,599.8v28.5h-6.2l-13.7,125.9h-19l-8.7-66.7l-8.8,66.7h-19l-13.7-125.9h-6.2v-28.5h29.3v28.5h-4.5l4.9,50.4
				l10.2-78.9h15.4l10.1,79l4.9-50.5h-4.4v-28.5H733.5z"/>
			<path d="M742.4,754.2v-28.5h5.3v-97.4h-5.3v-28.5h58.8v41h-18.6v-12.5h-16.3v34.4h25.5v28.6h-25.5v34.4h16.3v-12.5h18.6v41H742.4
				z"/>
			<path d="M875.5,754.2h-19.9l-15.8-62.9h-5.5v34.4h5.3v28.5h-29.3v-28.5h5.3v-97.4h-5.3v-28.5h50l11.9,16.2v56.7l-12.7,18.2
				l8.8,34.8h7.2V754.2z M834.2,662.7h19.3v-34.4h-19.3V662.7z"/>
		</g>
	</g>
</g>
</svg>
